<svg width="40" height="40" viewBox="0 0 40 40" fill="none" xmlns="http://www.w3.org/2000/svg">
<g clip-path="url(#clip0_6_135)">
<path d="M15.9546 36.3398C15.6524 36.6381 15.3417 36.952 15.02 37.2588C13.9133 38.3274 12.5721 38.6273 11.1406 38.216C9.66699 37.7923 8.71214 36.7728 8.37023 35.2377C8.32583 35.0391 8.27367 34.8413 8.21058 34.5827C6.20193 35.2993 4.38564 35.1193 3.10678 33.3046C1.82791 31.4899 2.22435 29.7173 3.57876 28.0786C3.10211 27.9166 2.66597 27.8145 2.27032 27.6268C-0.158127 26.4741 -0.773408 23.3837 1.0709 21.4015C2.42765 19.9427 3.86384 18.558 5.27043 17.1467C6.36082 16.0516 7.46678 14.9659 8.55794 13.8755C8.6958 13.7369 8.7916 13.557 8.92945 13.3646C8.21525 13.2781 7.56336 13.233 6.92392 13.1177C4.40124 12.6644 2.44554 10.7266 2.07637 8.27016C1.80221 6.44221 2.66751 5.1688 4.62553 5.1026C6.73776 5.03094 8.85859 4.97876 10.9038 4.39151C12.3604 3.97558 13.7946 3.48504 15.2007 2.92183C17.6891 1.91945 20.1853 0.997295 22.8622 0.600862C26.6233 0.043987 30.0128 0.937325 33.0534 3.16249C35.182 4.72018 37.0544 6.53957 38.3402 8.88545C41.2329 14.1629 40.2757 20.7364 35.9507 25.0971C33.2077 27.8644 30.428 30.595 27.6654 33.342C25.9576 35.0404 24.2493 36.7391 22.5406 38.438C21.5281 39.4373 20.3216 39.7878 18.9368 39.431C17.6307 39.0938 16.7561 38.2721 16.2989 37.001C16.2296 36.8087 16.1579 36.6178 16.0824 36.4278C16.0769 36.4029 16.038 36.392 15.9546 36.3398ZM38.6829 14.8584C38.5918 14.2868 38.5007 13.2454 38.253 12.2423C37.6035 9.609 36.0349 7.54584 34.0916 5.71633C30.2628 2.11183 25.8405 0.869565 20.7664 2.40233C18.778 3.00283 16.8386 3.7731 14.8977 4.52079C12.7777 5.33702 10.6195 5.9858 8.3492 6.18597C7.16457 6.28955 5.97218 6.2989 4.78989 6.41962C3.53595 6.54268 3.20336 7.02167 3.41988 8.26004C3.46824 8.52349 3.54856 8.78007 3.65901 9.02409C4.45109 10.796 5.86779 11.6955 7.75883 11.8887C8.8056 11.9954 9.83678 11.8606 10.8485 11.5694C11.1733 11.4759 11.5129 11.4471 11.7317 11.7828C11.9654 12.1426 11.8369 12.4635 11.5713 12.7501C11.449 12.8802 11.3213 13.0048 11.1951 13.1309L7.40603 16.9193C5.6801 18.6447 3.95338 20.3695 2.2259 22.0939C1.60282 22.717 1.26013 23.4553 1.35281 24.3393C1.46575 25.4157 2.07014 26.1517 3.07407 26.5287C4.09826 26.9126 5.02119 26.665 5.78524 25.9157C7.54933 24.1875 9.29003 22.4397 11.0432 20.6974C11.7387 20.005 12.4187 19.2955 13.1236 18.6132C13.4935 18.2542 13.879 18.2355 14.1469 18.5065C14.4149 18.7776 14.3806 19.1577 14.0542 19.5409C13.9398 19.6772 13.8074 19.7986 13.6812 19.9248C10.7356 22.872 7.79051 25.8186 4.84595 28.7647C4.63013 28.9697 4.42847 29.1891 4.24234 29.4213C3.86942 29.911 3.67874 30.5153 3.70304 31.1303C3.72735 31.7453 3.96512 32.3327 4.37552 32.7914C5.21823 33.7299 6.51892 33.9519 7.62177 33.3039C7.94888 33.1123 8.22771 32.828 8.49953 32.5569C11.7032 29.3626 14.9032 26.1655 18.0996 22.9654C18.2624 22.7916 18.4376 22.6297 18.6237 22.481C18.9205 22.259 19.2468 22.238 19.5062 22.5277C19.7655 22.8175 19.7398 23.1306 19.5015 23.4187C19.3456 23.5988 19.1803 23.7704 19.0062 23.9328C16.3955 26.5404 13.7842 29.1482 11.1725 31.7563C10.861 32.0717 10.53 32.3794 10.2449 32.7205C9.34767 33.7992 9.41543 35.3304 10.3843 36.2884C11.403 37.2954 12.9249 37.3367 14.0161 36.3811C14.1952 36.2253 14.3596 36.0516 14.5278 35.8826L23.6777 26.7226C24.2571 26.1439 24.6123 26.059 24.9527 26.4111C25.293 26.7631 25.2019 27.077 24.5959 27.6829C23.1655 29.1144 21.7342 30.5452 20.3022 31.9751C19.5459 32.7337 18.7733 33.4783 18.0536 34.2696C17.4212 34.9651 17.2849 35.8141 17.6136 36.684C17.9586 37.5992 18.6736 38.1023 19.6386 38.2145C20.5047 38.3157 21.1807 37.938 21.782 37.3375C26.184 32.9432 30.6063 28.57 34.9982 24.1664C37.4243 21.738 38.5747 18.7464 38.6829 14.8584Z" fill="#A352FF"/>
<path d="M29.6562 13.0305C29.6632 16.6802 26.8991 20.3875 22.2634 20.3727C17.7998 20.3579 14.8869 16.9021 14.908 12.9939C14.9329 8.38078 18.7189 5.60263 22.2984 5.63145C24.2543 5.64031 26.1268 6.42401 27.5059 7.81087C28.8851 9.19772 29.6583 11.0746 29.6562 13.0305ZM22.4129 7.00145C19.0249 6.83088 16.2694 9.75778 16.2405 12.8428C16.2086 16.2643 18.7905 18.9957 22.1465 19.0486C25.5548 19.1016 28.3672 16.4146 28.3306 13.0165C28.2925 9.27645 25.2331 6.93992 22.4145 7.00145H22.4129Z" fill="#A352FF"/>
<path d="M30.6063 11.134C30.6492 10.6924 30.6842 10.3271 30.7177 9.98752C32.2435 9.69857 34.7825 11.0483 35.7156 13.3062C36.7195 15.737 36.077 18.4318 34.0683 20.0876C32.1851 21.6398 29.3999 21.8127 27.3702 20.4661C27.4528 20.2979 27.526 20.1141 27.6272 19.9474C27.7285 19.7807 27.8656 19.6117 28.026 19.3921C29.4466 20.199 30.9077 20.3205 32.3798 19.5961C32.9067 19.3471 33.377 18.9927 33.7616 18.5548C34.1462 18.1169 34.4369 17.6048 34.6158 17.0501C35.0769 15.6653 34.8907 14.3428 34.0955 13.1263C33.3003 11.9097 32.0939 11.3178 30.6063 11.134Z" fill="#A352FF"/>
<path d="M22.9892 17.2869C22.9643 17.4154 22.9417 17.5307 22.9207 17.6459C22.8996 17.7612 22.8825 17.8796 22.8529 18.058H21.6917C21.6481 17.797 21.6052 17.5416 21.5561 17.2526C20.2788 16.7324 19.3606 15.9076 19.3154 14.3156H20.5125C20.595 14.5212 20.6683 14.7455 20.7711 14.9543C20.8776 15.1763 21.0295 15.3736 21.2171 15.5333C21.4046 15.6929 21.6236 15.8115 21.8598 15.8812C22.096 15.951 22.3443 15.9703 22.5884 15.9381C22.8326 15.9059 23.0673 15.8228 23.2774 15.6942C23.8888 15.3297 23.9262 14.5422 23.3249 14.1606C23.0812 14.0048 22.7797 13.927 22.5001 13.8444C22.0437 13.712 21.5741 13.6271 21.1216 13.4853C19.0966 12.8545 19.183 10.5187 20.3123 9.54828C20.6675 9.24297 21.0966 9.02333 21.5624 8.7188C21.5912 8.54823 21.6348 8.29122 21.6894 7.97345H22.8405C22.8919 8.25072 22.9386 8.50462 22.983 8.74295C24.7159 9.67757 25.1817 10.2843 25.1817 11.6543H24.0484C23.942 11.3935 23.8208 11.1389 23.6855 10.8918C23.159 10.0351 22.0211 9.83567 21.2976 10.465C20.5966 11.0748 20.7649 11.9744 21.6504 12.2563C22.1302 12.4121 22.6341 12.4853 23.1209 12.6177C24.3475 12.9511 24.9955 13.6769 25.0539 14.7642C25.1116 15.8258 24.7081 16.4995 23.7299 16.9652C23.4885 17.0782 23.2416 17.1771 22.9892 17.2869Z" fill="#A352FF"/>
</g>
<defs>
<clipPath id="clip0_6_135">
<rect width="40" height="39.1269" fill="white" transform="translate(0 0.436523)"/>
</clipPath>
</defs>
</svg>
