<svg width="39" height="44" viewBox="0 0 39 44" fill="none" xmlns="http://www.w3.org/2000/svg">
<g clip-path="url(#clip0_6_122)">
<path d="M9.2781 6.90639C9.2781 6.21151 9.26977 5.67782 9.2781 5.14413C9.2881 4.63383 9.27811 4.11934 9.34725 3.61572C9.57469 1.86181 10.8202 0.655791 12.573 0.502951C16.2544 0.181401 19.9417 -0.0140292 23.6373 0.142987C25.4801 0.221496 27.3229 0.35011 29.1615 0.512973C30.9585 0.672495 32.2572 2.05976 32.3322 3.88215C32.3822 5.09318 32.3514 6.30421 32.3555 7.52109C32.3555 7.83429 32.3555 8.14832 32.3555 8.57343C32.6946 8.48991 32.9287 8.43647 33.1578 8.37132C33.7693 8.19593 34.3683 7.9604 34.9906 7.84765C36.1503 7.63635 37.1242 8.01469 37.8606 8.95345C39.2994 10.7909 38.7178 13.3616 36.606 14.3672C35.4296 14.9276 34.2158 15.4103 33.0195 15.9315C32.8187 16.015 32.6255 16.1253 32.3989 16.238V17.2803C32.6638 17.2803 32.9062 17.2803 33.1486 17.2803C34.5032 17.2611 35.488 17.8842 36.0278 19.1019C36.5818 20.3547 36.361 21.534 35.4563 22.5705C35.373 22.6665 35.2689 22.7442 35.1831 22.8377C35.1189 22.9062 35.0681 22.9864 34.9556 23.1367C36.2327 23.7623 37.0958 24.6768 37.1 26.1944C37.1042 27.7119 36.2594 28.6565 34.914 29.3171C35.1422 29.4733 35.2972 29.5769 35.4505 29.6846C37.3624 31.0209 37.1808 33.7353 35.0956 34.7893C34.4149 35.1334 33.6927 35.3949 33.0129 35.7339C32.7771 35.8509 32.5247 36.0513 32.4114 36.2793C31.6616 37.7827 30.3578 38.4375 28.7924 38.5636C27.8427 38.6398 26.913 38.8779 26.0432 39.2676C23.2757 40.4845 20.4823 41.6404 17.7198 42.8673C14.3875 44.3481 11.0551 44.2178 7.83187 42.7003C2.75001 40.3033 0.178265 36.1858 0.000816396 30.5532C-0.0824926 27.894 0.613126 25.375 1.36291 22.8695C1.77945 21.4655 2.26433 20.0791 2.71336 18.6835C3.76639 15.407 3.98049 12.0604 3.56144 8.66113C3.50151 8.21817 3.46977 7.77183 3.46646 7.32482C3.47396 6.28166 3.88302 5.79558 4.89272 5.62437C6.14236 5.41223 7.28619 5.76968 8.36921 6.36935C8.62247 6.49797 8.85989 6.65583 9.2781 6.90639ZM10.8193 7.24047C10.6177 8.49326 10.6735 30.2083 10.886 30.9174H11.5299H29.0107C29.1698 30.9174 29.3298 30.9266 29.488 30.9115C29.6907 30.8959 29.8874 30.8353 30.0639 30.7342C30.2404 30.6331 30.3923 30.494 30.5086 30.3269C29.1756 29.6896 28.4758 28.7208 28.4708 27.2868C28.4658 25.8227 29.3339 24.9274 30.5652 24.2091C29.119 23.5192 28.3992 22.4719 28.4825 20.966C28.5716 19.4001 29.5705 18.5256 30.8868 18.007C31.0576 16.5353 30.9993 7.93785 30.8193 7.24297L10.8193 7.24047ZM4.99185 7.09514C4.9577 7.17866 4.89022 7.26218 4.88939 7.3457C4.891 7.56897 4.90434 7.792 4.92937 8.01386C5.12098 10.0801 5.28426 12.1397 5.07099 14.2218C4.82523 16.623 4.15876 18.9073 3.40481 21.1807C2.55089 23.7514 1.68365 26.3238 1.47121 29.0532C1.10632 33.742 2.6292 37.6332 6.54723 40.3284C9.87959 42.6226 13.4952 43.2006 17.3133 41.4834C18.7645 40.8311 20.2366 40.2248 21.6978 39.5934C22.0669 39.4347 22.4301 39.2593 22.9933 39.0087C22.6192 38.9712 22.4701 38.9478 22.321 38.9436C20.0616 38.8784 17.8015 38.8367 15.5438 38.7431C14.4307 38.7036 13.3205 38.6041 12.2181 38.445C10.6419 38.2095 9.5372 37.0151 9.34558 35.4274C9.29444 34.9194 9.27329 34.4087 9.28227 33.8982C9.27894 25.9505 9.27534 18.0025 9.27145 10.0542C9.28124 9.7072 9.21794 9.362 9.08567 9.04115C8.43753 7.64971 6.56806 6.77526 4.99185 7.10015V7.09514ZM28.8416 32.4157C27.6611 32.227 11.445 32.2679 10.7102 32.4608C10.7102 33.2409 10.7385 34.0368 10.7035 34.8303C10.6577 35.8876 11.5208 37.0068 12.7863 37.122C17.0425 37.5062 21.3013 37.5697 25.5659 37.4093C26.7397 37.3651 27.9127 37.2298 29.079 37.0753C29.7771 36.9842 30.4119 36.7028 30.8618 35.997C29.2231 35.3306 28.6341 34.0652 28.8416 32.4207V32.4157ZM30.9601 5.74714C30.9601 5.08483 30.9918 4.54195 30.9543 4.00409C30.871 2.85904 30.197 2.11321 29.0623 1.95118C28.3075 1.84344 27.5419 1.81588 26.7813 1.75157C23.0616 1.43503 19.3393 1.46593 15.6179 1.67724C14.5707 1.73737 13.5227 1.83426 12.4822 1.97123C11.5758 2.0915 10.871 2.76048 10.7618 3.64829C10.6785 4.32814 10.7452 5.02553 10.7452 5.74714H30.9601ZM32.4064 14.6319C33.7885 14.0331 35.0273 13.5587 36.2069 12.9615C37.1633 12.4805 37.4682 11.3413 37.0458 10.3207C36.6601 9.38691 35.8837 9.01943 34.7773 9.33347C33.9659 9.56314 33.1803 9.88386 32.4064 10.1553V14.6319ZM35.7137 26.2486C35.7071 25.0794 34.6682 24.2275 33.631 24.5783C32.61 24.9269 31.6187 25.3575 30.6669 25.8661C29.8629 26.2946 29.6538 27.3018 30.0629 28.1212C30.4519 28.9021 31.2967 29.2328 32.1681 28.8879C33.0237 28.5538 33.8618 28.1663 34.6999 27.7854C35.3822 27.4856 35.6512 26.8959 35.7154 26.2537L35.7137 26.2486ZM34.8956 20.4023C34.909 19.299 33.8893 18.4129 32.8671 18.7386C32.0845 18.995 31.3324 19.337 30.6244 19.7584C29.8579 20.2077 29.6697 21.2383 30.102 22.0351C30.5028 22.7734 31.3025 23.0841 32.1339 22.7634C32.7823 22.5092 33.4167 22.2204 34.0342 21.8981C34.6249 21.5991 34.8515 21.0471 34.8956 20.4073V20.4023ZM31.6133 34.6006C32.1348 34.6123 34.654 33.5148 34.9814 33.1382C35.1969 32.8997 35.3283 32.5969 35.3555 32.2763C35.3828 31.9557 35.3043 31.635 35.1322 31.3634C34.799 30.8021 34.2208 30.4939 33.5893 30.7245C32.636 31.0727 31.708 31.4869 30.8118 31.9639C30.2761 32.2487 30.097 32.9953 30.2753 33.57C30.3553 33.8654 30.5292 34.1267 30.7707 34.3141C31.0121 34.5016 31.3079 34.6051 31.6133 34.6089V34.6006Z" fill="#A352FF"/>
<path d="M16.3977 21.2291H17.6865C17.7698 21.5239 17.8373 21.7954 17.9239 22.0643C18.5521 23.9852 20.7273 24.7737 22.4134 23.6896C23.0799 23.262 23.4348 22.6773 23.3615 21.8471C23.2932 21.0679 22.8258 20.6394 22.1568 20.4056C21.5587 20.196 20.938 20.0506 20.324 19.8811C19.8659 19.7541 19.3952 19.6623 18.9469 19.5053C16.8242 18.7594 16.1061 16.7591 17.2533 14.814C17.6923 14.0653 18.363 13.4806 19.1636 13.1486C19.4227 13.0375 19.6917 12.9481 19.9841 12.8387C20.0208 12.4512 20.0566 12.0787 20.0975 11.6469H21.3654C21.4046 12.0278 21.4429 12.3986 21.487 12.827C23.5698 13.4459 24.9335 14.7171 25.0902 17.1258H23.788C23.7147 16.8811 23.6339 16.5812 23.5381 16.2906C22.9791 14.6344 21.1355 13.8034 19.6084 14.5125C19.2879 14.6566 19.0021 14.8682 18.7703 15.1327C18.5384 15.3973 18.366 15.7087 18.2647 16.0459C17.9439 17.0322 18.2647 17.7438 19.2452 18.1005C19.8992 18.3385 20.5906 18.4696 21.2629 18.6592C21.782 18.8054 22.311 18.9298 22.8083 19.1302C24.0046 19.613 24.7044 20.5117 24.8077 21.8095C24.9111 23.1074 24.352 24.1114 23.2874 24.8029C22.7625 25.1437 22.1543 25.3558 21.5045 25.6631C21.472 25.9229 21.4304 26.2611 21.3779 26.6804H20.1366C20.0894 26.3463 20.0375 25.9827 19.9808 25.5896C17.8698 24.9374 16.5077 23.6679 16.3977 21.2291Z" fill="#A352FF"/>
<path d="M20.7497 34.0151C21.4804 34.0151 22.2101 34.0076 22.9399 34.0201C23.1898 34.0201 23.4914 34.0043 23.6739 34.132C23.8722 34.2698 24.0538 34.5622 24.0646 34.8002C24.0738 34.9856 23.8455 35.2261 23.6631 35.3623C23.5289 35.4625 23.2998 35.4583 23.1124 35.4592C21.5887 35.4642 20.0658 35.4592 18.5421 35.4592C18.4786 35.4595 18.4152 35.4564 18.3521 35.45C17.9397 35.4065 17.6023 35.2687 17.5757 34.7818C17.5507 34.3475 17.8256 34.056 18.3696 34.0302C19.1619 33.9984 19.9566 34.0218 20.7497 34.0218V34.0151Z" fill="#A352FF"/>
<path d="M20.7589 4.45927C20.4749 4.45927 20.1866 4.49101 19.9075 4.45175C19.5268 4.3983 19.2652 4.18032 19.2702 3.75687C19.2752 3.33343 19.5201 3.09456 19.9142 3.07285C20.5132 3.04027 21.1155 3.03944 21.7153 3.06617C22.0994 3.08371 22.3701 3.29251 22.3976 3.71595C22.4243 4.12186 22.1869 4.37659 21.707 4.46763C21.6446 4.47892 21.5813 4.48479 21.5179 4.48516C21.268 4.48516 21.0122 4.48516 20.7589 4.48516V4.45927Z" fill="#A352FF"/>
</g>
<defs>
<clipPath id="clip0_6_122">
<rect width="38.6562" height="43.8226" fill="white" transform="translate(0 0.0886841)"/>
</clipPath>
</defs>
</svg>
