<svg width="40" height="49" viewBox="0 0 40 49" fill="none" xmlns="http://www.w3.org/2000/svg">
<path d="M32.5272 19.2736C33.4286 19.2202 33.7226 19.7589 33.8601 20.5482C34.0709 21.74 34.3733 22.9143 34.6165 24.1011C34.7832 24.9212 34.5374 25.2102 33.6885 25.2369C33.4019 25.2461 33.1153 25.2369 32.8287 25.2369H7.24036C7.01792 25.2369 6.79466 25.247 6.57389 25.2369C5.83827 25.1968 5.57418 24.9029 5.7208 24.2038C5.99572 22.8614 6.28758 21.5228 6.59638 20.1882C6.75717 19.4908 6.81715 19.4641 7.85601 19.216C7.87101 18.9813 7.90101 18.7316 7.90101 18.4819C7.90489 15.6422 7.90489 12.8026 7.90101 9.9629C7.90101 9.55199 7.95432 9.1511 7.48446 8.88884C7.31784 8.7953 7.21037 8.45788 7.20287 8.22821C7.17372 7.27191 7.17455 6.31311 7.20287 5.35681C7.22037 4.6778 7.44197 4.45897 8.14593 4.43809C8.97235 4.40886 9.80128 4.40886 10.6277 4.43809C11.1347 4.45362 11.6363 4.33064 12.079 4.0823C14.4949 2.7961 16.9325 1.55334 19.3385 0.250433C19.9442 -0.0769629 20.4215 -0.0702813 21.0247 0.250433C23.349 1.50322 25.7058 2.69755 28.0343 3.94283C28.6699 4.28275 29.2973 4.49071 30.0287 4.43893C30.7283 4.40051 31.4294 4.40051 32.1289 4.43893C32.962 4.4715 33.1436 4.65441 33.1561 5.46371C33.1711 6.35737 33.1561 7.25103 33.162 8.14385C33.162 8.47793 33.1445 8.80365 32.8137 8.97403C32.4672 9.15444 32.4422 9.44676 32.443 9.78C32.4502 12.8424 32.455 15.9048 32.4572 18.9671C32.4722 19.071 32.4956 19.1735 32.5272 19.2736ZM12.383 19.2778C12.383 16.9009 12.383 14.6366 12.383 12.3724C12.383 11.2575 12.5496 11.0787 13.6327 11.0771C18.0242 11.0732 22.4157 11.0732 26.8072 11.0771C27.8643 11.0771 27.9985 11.2157 28.0018 12.309C28.0093 14.2875 28.0018 16.2653 28.0076 18.2388C28.0076 18.5779 28.0318 18.917 28.0451 19.2586H30.9943V9.20872C29.6971 9.00828 10.0129 9.06757 9.35142 9.26635C9.1848 10.8148 9.24645 18.5971 9.44139 19.2778H12.383ZM32.4438 20.8321H7.91766C7.72772 21.6748 7.54194 22.4775 7.37033 23.2842C7.35492 23.4328 7.35492 23.5825 7.37033 23.7311C8.43002 23.9282 32.3389 23.8873 33.037 23.6843C33.0128 23.5056 32.9995 23.3177 32.9604 23.1356C32.7971 22.3923 32.6288 21.6514 32.4438 20.8321ZM8.67577 7.58928H31.7157V5.8596C30.9393 5.8596 30.2162 5.82869 29.4914 5.86962C28.8907 5.90303 28.3717 5.73265 27.8552 5.4587C25.55 4.23681 23.2299 3.04332 20.9405 1.79972C20.4074 1.5099 20 1.48067 19.4501 1.78051C17.1316 3.04165 14.779 4.24183 12.4522 5.48292C11.9607 5.74517 11.4716 5.89217 10.9085 5.86711C10.187 5.83538 9.46222 5.8596 8.68244 5.8596L8.67577 7.58928ZM13.8743 19.282H19.4476V12.5771H13.8726L13.8743 19.282ZM20.9655 12.5528V19.262H26.5531V12.5545L20.9655 12.5528Z" fill="#A352FF"/>
<path d="M19.9609 35.5676C21.0119 35.5721 22.0188 35.9918 22.7634 36.7355C23.5079 37.4793 23.93 38.4873 23.9382 39.541C23.9464 40.5946 23.5401 41.6091 22.8073 42.3645C22.0745 43.1198 21.0742 43.5552 20.0234 43.5762C17.8215 43.5896 15.9921 41.7856 15.9871 39.5974C15.983 39.0709 16.0827 38.5488 16.2804 38.061C16.4781 37.5733 16.7699 37.1295 17.1391 36.755C17.5083 36.3806 17.9477 36.083 18.4319 35.8792C18.9161 35.6754 19.4357 35.5695 19.9609 35.5676ZM20.0017 42.1355C21.3988 42.1355 22.566 40.993 22.591 39.6057C22.616 38.2185 21.3863 36.9648 19.9892 36.9648C19.3145 36.9722 18.6695 37.244 18.1921 37.7221C17.7147 38.2002 17.443 38.8466 17.435 39.523C17.4175 41.0105 18.5255 42.138 20.0017 42.1355Z" fill="#A352FF"/>
<path d="M29.8971 39.5539C29.9012 38.4907 30.3264 37.4726 31.0792 36.7237C31.8321 35.9748 32.8508 35.5564 33.9114 35.5605C34.9719 35.5646 35.9874 35.9909 36.7345 36.7456C37.4815 37.5003 37.8989 38.5216 37.8948 39.5848C37.8948 41.7722 36.0753 43.5804 33.8743 43.5779C33.349 43.5777 32.8289 43.4732 32.344 43.2705C31.8592 43.0677 31.4192 42.7707 31.0495 42.3966C30.6797 42.0225 30.3875 41.5787 30.1897 41.0908C29.992 40.6029 29.8925 40.0806 29.8971 39.5539ZM36.4519 39.6157C36.4752 38.1709 35.2989 36.9615 33.8801 36.9715C33.2054 36.9833 32.5609 37.254 32.0794 37.7279C31.5978 38.2018 31.3159 38.8428 31.2917 39.5189C31.2542 40.9044 32.3889 42.0979 33.7852 42.1422C34.1276 42.158 34.4697 42.1045 34.791 41.9848C35.1123 41.865 35.4062 41.6815 35.6552 41.4453C35.9041 41.209 36.103 40.9249 36.2399 40.6098C36.3768 40.2947 36.4489 39.9552 36.4519 39.6116V39.6157Z" fill="#A352FF"/>
<path d="M10.0871 39.6091C10.0834 40.135 9.97622 40.655 9.77175 41.1393C9.56728 41.6236 9.26951 42.0627 8.89549 42.4315C8.52148 42.8002 8.07856 43.0914 7.59213 43.2882C7.1057 43.4851 6.58531 43.5838 6.06076 43.5788C3.84724 43.5554 2.1094 41.7622 2.12523 39.5197C2.14106 37.2772 3.91055 35.5484 6.14906 35.5676C6.6737 35.569 7.1928 35.6753 7.67604 35.88C8.15928 36.0848 8.59699 36.3841 8.9636 36.7603C9.33021 37.1366 9.61836 37.5823 9.81126 38.0714C10.0042 38.5605 10.0979 39.0832 10.0871 39.6091ZM8.68416 39.5682C8.68416 38.1417 7.46035 36.9315 6.05992 36.9674C5.3859 36.9901 4.74658 37.2726 4.275 37.7559C3.80343 38.2392 3.53593 38.8863 3.52816 39.5623C3.5246 40.2385 3.78822 40.8886 4.2614 41.3705C4.73457 41.8524 5.3788 42.1268 6.05325 42.1339C7.52282 42.1489 8.68749 41.0131 8.68416 39.5682Z" fill="#A352FF"/>
<path d="M12.2173 48.9465H10.9502C10.7661 48.4746 10.6394 47.9769 10.3912 47.5492C9.89964 46.7032 9.07821 46.2655 8.17181 46.0058C6.76306 45.6016 5.34847 45.5932 3.94388 46.0442C2.53929 46.4952 1.52792 47.3062 1.3613 48.9365H0.000854492C0.0383436 47.2001 0.857274 45.959 2.29435 45.2157C4.73448 43.9529 7.26374 43.9512 9.73801 45.1272C11.2834 45.8605 12.1498 47.1216 12.2173 48.9465Z" fill="#A352FF"/>
<path d="M40 48.9374H38.722C38.6962 48.9098 38.6237 48.868 38.6171 48.8188C38.4063 47.2486 37.3824 46.4485 35.9762 46.02C34.6305 45.6066 33.1932 45.5991 31.8432 45.9983C30.3553 46.4251 29.3256 47.3121 29.104 48.9582H27.7977C27.8319 48.5907 27.8161 48.2199 27.9077 47.8775C28.2101 46.7475 28.8858 45.8647 29.9071 45.316C32.5022 43.922 35.1556 43.9112 37.754 45.2567C39.1619 45.9849 39.9417 47.2277 40 48.9374Z" fill="#A352FF"/>
<path d="M26.0857 48.9607C25.8158 48.9783 25.6617 48.9941 25.5025 48.9975C25.2834 49.0025 25.0643 48.9975 24.7936 48.9975C24.7428 48.8087 24.6928 48.6634 24.6669 48.5189C24.4845 47.4866 23.8455 46.8059 22.9483 46.3675C21.2996 45.5623 19.5776 45.5055 17.8448 46.0334C16.446 46.4602 15.4213 47.2862 15.253 48.9257H13.8984C13.8659 47.7063 14.3408 46.7441 15.1714 45.949C16.002 45.1539 17.0042 44.6962 18.1238 44.5C20.2807 44.1208 22.3726 44.2135 24.2546 45.5022C25.4217 46.3056 26.0907 47.4048 26.0857 48.9607Z" fill="#A352FF"/>
<path d="M31.7315 33.4704C31.7049 33.8513 31.3225 34.1511 30.9109 34.0793C30.7252 34.0376 30.5484 33.9632 30.3886 33.8596C28.0559 32.4724 26.2356 30.6166 25.1668 28.0817C25.0616 27.8501 24.9866 27.6059 24.9435 27.3551C24.8935 27.0027 25.051 26.7279 25.4 26.6101C25.7491 26.4924 26.0257 26.6143 26.2231 26.915C26.2894 27.0239 26.3433 27.1399 26.3839 27.2608C27.252 29.611 28.9049 31.2772 30.9859 32.5709C31.5591 32.9267 31.7532 33.1664 31.7315 33.4704Z" fill="#A352FF"/>
<path d="M15.0948 27.2766C14.9574 27.6691 14.8799 27.9447 14.7616 28.2062C13.6702 30.6833 11.8833 32.5216 9.56643 33.8688C9.43064 33.9481 9.26902 34.0726 9.13906 34.0525C8.87996 34.0124 8.56506 33.9531 8.40094 33.7802C8.15768 33.5297 8.22432 33.1689 8.48425 32.9267C8.7033 32.7437 8.93866 32.5812 9.18737 32.4414C11.1868 31.1945 12.7055 29.5383 13.5853 27.3259C13.6248 27.205 13.6724 27.087 13.7277 26.9726C13.9235 26.6193 14.2526 26.4372 14.5991 26.631C14.8366 26.7621 14.9582 27.087 15.0948 27.2766Z" fill="#A352FF"/>
<path d="M20.7115 30.0871C20.7115 30.8178 20.7115 31.5486 20.7115 32.2794C20.7224 32.5007 20.7028 32.7225 20.6532 32.9384C20.5549 33.2725 20.2941 33.523 19.9484 33.427C19.7176 33.3635 19.4902 33.1297 19.3594 32.9125C19.2569 32.7455 19.2894 32.4824 19.2886 32.2619C19.2836 30.7686 19.2836 29.2752 19.2886 27.7819C19.2895 27.5918 19.3018 27.4018 19.3252 27.2131C19.3727 26.8123 19.581 26.5625 20.005 26.5726C20.4291 26.5826 20.6298 26.8448 20.6923 27.229C20.7146 27.4183 20.7218 27.609 20.714 27.7995C20.7134 28.5645 20.7126 29.327 20.7115 30.0871Z" fill="#A352FF"/>
<path d="M20.2033 6.06683C19.5676 6.06683 18.9311 6.08437 18.2963 6.06099C17.7398 6.04011 17.4632 5.78036 17.4741 5.34857C17.4807 4.95102 17.7182 4.69127 18.2422 4.68041C19.5435 4.65285 20.8464 4.65285 22.1477 4.6896C22.6725 4.70463 22.885 4.9719 22.8716 5.38699C22.8583 5.80208 22.6167 6.0351 22.1094 6.05514C21.4754 6.08437 20.8389 6.06266 20.2033 6.06266V6.06683Z" fill="#A352FF"/>
</svg>
