<svg width="200" height="258" viewBox="0 0 200 258" fill="none" xmlns="http://www.w3.org/2000/svg">
<path d="M15.936 256.585H15.9928L16.2712 256.477L90.1898 213.922C92.3256 212.513 94.0767 210.596 95.2848 208.342C96.4928 206.088 97.1199 203.57 97.1095 201.014L97.0584 9.7535C97.0331 9.41565 96.9837 9.08002 96.9107 8.74919C95.9335 1.65665 87.4741 -2.29808 81.0032 1.42975L80.8953 1.49216L80.6737 1.60561L6.81758 44.1608C4.71451 45.5466 2.99005 47.4337 1.79983 49.6516C0.609606 51.8695 -0.00891105 54.3486 9.70027e-05 56.8649L0.170527 247.438C0.173183 247.788 0.2055 248.138 0.267116 248.482C0.767065 256.006 9.26051 260.432 15.936 256.585Z" fill="#1B0044"/>
<path d="M1.80664 79.5553V76.6843C1.80664 75.8559 2.4827 75.5495 3.31217 76.0488C3.73067 76.2989 4.0851 76.643 4.3474 77.0537C4.6097 77.4644 4.77266 77.9304 4.82338 78.4149V81.286C4.82338 82.1144 4.15299 82.4208 3.31785 81.9214C2.89817 81.6726 2.54281 81.3289 2.28034 80.918C2.01787 80.507 1.85562 80.0403 1.80664 79.5553Z" fill="#88119B"/>
<path d="M4.80628 78.4092C4.76011 77.9234 4.59967 77.4554 4.33804 77.0432C4.07642 76.6311 3.72101 76.2865 3.30076 76.0375C3.12355 75.943 2.93137 75.8796 2.73264 75.8502C2.6993 75.9566 2.68395 76.0679 2.68719 76.1794V79.0504C2.73791 79.5349 2.90087 80.0009 3.16317 80.4116C3.42547 80.8223 3.7799 81.1663 4.1984 81.4165C4.37469 81.5189 4.56662 81.5917 4.76653 81.6321C4.80449 81.5167 4.82366 81.396 4.82333 81.2746L4.80628 78.4092Z" fill="#4D00AD"/>
<path d="M0.715928 80.2531C0.829553 79.4191 1.54538 79.1183 2.30667 79.6177C2.69444 79.8732 3.00753 80.2267 3.21409 80.6423C3.42066 81.0579 3.51334 81.5208 3.48269 81.9837C3.36906 82.8178 2.6589 83.1186 1.89193 82.6249C1.50454 82.3676 1.19188 82.0129 0.985426 81.5966C0.778969 81.1802 0.686016 80.7168 0.715928 80.2531Z" fill="#FF3E6F"/>
<path d="M2.27253 79.6347C2.65869 79.8932 2.97039 80.2481 3.1767 80.6642C3.383 81.0803 3.47673 81.5429 3.44855 82.0064C3.43625 82.1544 3.39048 82.2976 3.31471 82.4254C3.23893 82.5532 3.13512 82.6621 3.01109 82.744L4.38027 82.1766C4.50463 82.1016 4.60759 81.996 4.67922 81.8698C4.75086 81.7436 4.78877 81.6011 4.78932 81.456C4.81923 80.9923 4.72628 80.529 4.51982 80.1126C4.31336 79.6963 4.00069 79.3416 3.6133 79.0843C3.32175 78.9353 2.99764 78.8612 2.67023 78.8687L1.28967 79.4361C1.45822 79.3975 1.63307 79.3952 1.80256 79.4294C1.97205 79.4637 2.13227 79.5337 2.27253 79.6347Z" fill="#88119B"/>
<path d="M1.74422 85.1612C2.16284 85.4106 2.5171 85.7546 2.77856 86.1655C3.04001 86.5764 3.20139 87.0428 3.24974 87.5273V96.129C3.26633 96.2875 3.23585 96.4473 3.1621 96.5886C3.08835 96.7299 2.97459 96.8463 2.83501 96.9234L4.19283 96.2823L4.32349 96.2198C4.48528 96.1526 4.62118 96.0353 4.71118 95.8852C4.80118 95.735 4.84054 95.56 4.82344 95.3858V86.7839C4.77508 86.2995 4.61371 85.8331 4.35225 85.4222C4.0908 85.0113 3.73654 84.6673 3.31792 84.4179C3.18382 84.3133 3.02794 84.2402 2.86176 84.2039C2.69558 84.1676 2.52335 84.1689 2.35779 84.2079L2.27826 84.2363H2.2328L0.6875 84.9626C0.867091 84.9126 1.0558 84.9044 1.23903 84.9388C1.42226 84.9733 1.59512 85.0494 1.74422 85.1612Z" fill="#88119B"/>
<path d="M0.250122 94.4155V85.8137C0.250122 84.9853 0.920505 84.6789 1.75565 85.1782C2.17427 85.4276 2.52853 85.7716 2.78998 86.1825C3.05144 86.5934 3.21281 87.0598 3.26117 87.5442V96.146C3.26117 96.9801 2.59079 97.2809 1.75565 96.7872C1.33719 96.5362 0.983183 96.191 0.721813 95.7793C0.460444 95.3675 0.298934 94.9006 0.250122 94.4155Z" fill="#FF3E6F"/>
<path d="M1.81812 104.078C2.23674 104.328 2.59098 104.672 2.85244 105.083C3.11389 105.494 3.27529 105.96 3.32364 106.445V111.375C3.33982 111.533 3.30911 111.692 3.23534 111.832C3.16158 111.972 3.04803 112.088 2.90891 112.164L4.26673 111.523L4.39172 111.46C4.55466 111.396 4.69213 111.28 4.78336 111.131C4.87459 110.981 4.9146 110.806 4.89734 110.632V105.701C4.85342 105.215 4.69584 104.747 4.4373 104.333C4.17876 103.919 3.82649 103.571 3.40886 103.318C3.27476 103.214 3.11888 103.14 2.9527 103.104C2.78652 103.068 2.61429 103.069 2.44873 103.108H2.3692C2.3692 103.108 2.34078 103.108 2.32374 103.108L0.778442 103.835C0.958901 103.793 1.14637 103.794 1.32654 103.836C1.50671 103.879 1.67485 103.961 1.81812 104.078Z" fill="#88119B"/>
<path d="M0.324097 109.639V104.714C0.324097 103.88 0.994479 103.579 1.82962 104.078C2.24825 104.328 2.6025 104.672 2.86396 105.083C3.12541 105.494 3.28679 105.96 3.33515 106.444V111.375C3.33515 112.204 2.66476 112.51 1.82962 112.011C1.41027 111.761 1.05557 111.416 0.794071 111.004C0.532575 110.592 0.371599 110.124 0.324097 109.639Z" fill="#FF3E6F"/>
<path d="M97.0584 8.39741L97.1095 200.877C97.1204 203.434 96.4935 205.953 95.2854 208.206C94.0772 210.46 92.326 212.377 90.1897 213.786L15.1576 256.908C10.8455 258.82 5.65858 256.693 5.63586 251.802L5.4995 60.0197C5.48998 57.5032 6.10829 55.024 7.29855 52.806C8.48882 50.588 10.2135 48.7011 12.317 47.3156L87.3093 4.19301C92.6043 1.18578 96.7516 3.88089 97.0584 8.39741Z" fill="#88119B"/>
<path d="M17.4414 250.65L88.7353 209.303C90.2376 208.314 91.4684 206.965 92.3158 205.38C93.1631 203.794 93.6001 202.022 93.5871 200.225L93.4564 12.7551C93.2405 9.58896 90.3488 7.6825 86.5878 9.78756L15.3394 51.1852C13.8689 52.1571 12.6637 53.4792 11.8326 55.0324C11.0014 56.5856 10.5704 58.321 10.5785 60.0821L10.7716 247.087C10.7755 247.86 10.9887 248.619 11.3886 249.282C11.7886 249.945 12.3604 250.487 13.0437 250.853C13.727 251.218 14.4964 251.391 15.2705 251.356C16.0446 251.32 16.7947 251.076 17.4414 250.65Z" fill="#4D00AD"/>
<path d="M61.9256 20.5567L62.0165 20.5057C62.488 20.2333 62.8687 20.5057 62.8744 21.1469C62.8693 21.4669 62.7903 21.7813 62.6435 22.0658C62.4966 22.3502 62.2859 22.5969 62.0279 22.7866L61.937 22.8377C61.4654 23.1157 61.0791 22.8377 61.0791 22.1965C61.0819 21.8761 61.16 21.5608 61.307 21.276C61.454 20.9912 61.6659 20.7449 61.9256 20.5567Z" fill="#1B0044"/>
<path d="M42.905 31.6326L59.2385 22.1115C59.7101 21.8392 60.0907 22.1115 60.0964 22.7527C60.0934 23.0737 60.0146 23.3894 59.8665 23.6743C59.7185 23.9592 59.5053 24.2053 59.2442 24.3925L42.9163 33.9135C42.4448 34.1859 42.0585 33.9135 42.0585 33.2724C42.0604 32.9518 42.1381 32.6362 42.2852 32.3512C42.4323 32.0663 42.6446 31.8201 42.905 31.6326Z" fill="#1B0044"/>
<path d="M17.5494 137.181C17.1629 137.183 16.7826 137.083 16.4472 136.891C15.5723 136.381 15.0781 135.274 15.0894 133.85C15.0894 131.314 16.6177 128.471 18.5436 127.37L85.0937 89.3997C85.4781 89.1409 85.9251 88.9902 86.3879 88.9632C86.8506 88.9363 87.3121 89.0341 87.724 89.2465C88.5933 89.7571 89.0876 90.8636 89.0819 92.2878C89.0819 94.8184 87.5536 97.6667 85.622 98.7675L19.0776 136.732C18.6165 137.013 18.0894 137.168 17.5494 137.181Z" fill="#88119B"/>
<path d="M17.5494 138.957C17.1624 138.957 16.7821 138.855 16.4472 138.662C15.5723 138.151 15.0781 137.044 15.0894 135.62C15.0894 133.09 16.6177 130.241 18.5436 129.146L85.0937 91.1756C85.4769 90.914 85.9242 90.7615 86.3876 90.7346C86.851 90.7076 87.313 90.807 87.724 91.0224C88.5933 91.5274 89.0876 92.6338 89.0819 94.0637C89.0819 96.5943 87.5536 99.437 85.622 100.538L19.0776 138.497C18.6165 138.779 18.09 138.938 17.5494 138.957Z" fill="#1B0044"/>
<path d="M50.2165 225.525C50.1406 225.527 50.0657 225.508 50.0006 225.469C49.9127 225.403 49.8424 225.317 49.7958 225.218C49.7492 225.119 49.7278 225.01 49.7336 224.901C49.7368 224.651 49.7998 224.405 49.9174 224.184C50.035 223.963 50.2038 223.773 50.4096 223.63L63.4765 216.18C63.5551 216.135 63.6443 216.111 63.735 216.111C63.8258 216.111 63.9149 216.135 63.9935 216.18C64.0815 216.245 64.1516 216.331 64.1973 216.43C64.243 216.53 64.2628 216.639 64.2548 216.748C64.2526 216.998 64.19 217.244 64.0723 217.466C63.9546 217.687 63.7853 217.877 63.5788 218.019L50.5119 225.469C50.4195 225.511 50.3181 225.531 50.2165 225.525Z" fill="#EAE9EC"/>
<path d="M197.65 163.276C200.826 161.369 200.775 158.345 197.543 156.552L91.2465 97.5419C88.0082 95.7489 82.7645 95.8397 79.5886 97.7349L21.5889 132.488C18.4131 134.395 18.4642 137.419 21.7025 139.212L127.998 198.188C131.237 199.986 136.481 199.89 139.656 198.001L197.65 163.276Z" fill="#B5C4D1"/>
<path d="M197.577 161.715C200.752 159.814 200.701 156.79 197.463 154.991L91.167 96.0157C87.9344 94.217 82.6849 94.3135 79.5148 96.2086L21.5207 130.934C18.3449 132.834 18.396 135.859 21.6286 137.652L127.93 196.662C131.163 198.455 136.407 198.364 139.583 196.469L197.577 161.715Z" fill="#FF3E6F"/>
<path d="M21.5206 130.934L53.9037 111.534C54.6706 115.347 55.6478 119.421 57.9601 122.491C70.0214 138.497 103.188 134.559 114.636 133.765C156.069 130.9 137.418 160.66 170.829 166.589C175.442 167.406 180.374 168.785 185.441 168.972L139.571 196.44C136.395 198.341 131.151 198.426 127.919 196.633L21.6172 137.623C18.3959 135.859 18.3448 132.823 21.5206 130.934Z" fill="#C52887"/>
<path d="M96.8766 122.4L91.4055 119.421L93.3315 118.269L98.7968 121.248L96.8766 122.4Z" fill="#4D00AD"/>
<path d="M87.5705 117.35L83.5198 115.143L85.44 113.991L89.4908 116.204L87.5705 117.35Z" fill="#4D00AD"/>
<path d="M69.2429 123.694L73.9186 120.891L86.8548 127.943L82.1848 130.741L69.2429 123.694Z" fill="#4D00AD"/>
<path d="M112.687 126.389L87.5876 112.709L90.0306 111.245L115.125 124.925L112.687 126.389Z" fill="#4D00AD"/>
<path d="M93.9053 137.374L98.5809 134.571L111.517 141.623L106.841 144.421L93.9053 137.374Z" fill="#4D00AD"/>
<path d="M118.312 150.917L122.987 148.115L136.174 155.303L131.504 158.101L118.312 150.917Z" fill="#4D00AD"/>
<path d="M142.844 164.53L147.519 161.727L160.83 168.984L156.16 171.781L142.844 164.53Z" fill="#4D00AD"/>
<path d="M75.4641 136.982C75.6243 136.925 75.7624 136.819 75.8591 136.679C75.9558 136.54 76.0061 136.373 76.003 136.203C75.9998 136.033 75.9434 135.869 75.8416 135.733C75.7398 135.597 75.5979 135.496 75.4357 135.445L55.1082 124.159C54.6902 123.959 54.2313 123.859 53.7678 123.867C53.3043 123.874 52.849 123.99 52.438 124.204L39.1553 132.148C38.4281 132.585 38.4394 133.283 39.1553 133.686L59.4885 144.971C59.9067 145.174 60.3669 145.276 60.8318 145.268C61.2967 145.26 61.7532 145.143 62.1643 144.926L75.4641 136.982Z" fill="#FEB732"/>
<path d="M122.715 185.932L120.812 184.848C120.158 184.479 120.141 183.889 120.772 183.532L126.084 180.519C126.444 180.34 126.841 180.247 127.243 180.247C127.645 180.247 128.042 180.34 128.402 180.519L130.311 181.603L122.715 185.932Z" fill="#1B0044"/>
<path d="M131.112 182.074L134.185 183.821L126.589 188.133L123.516 186.386L131.112 182.074Z" fill="#1B0044"/>
<path d="M129.271 189.654L127.385 188.582L134.981 184.275L136.867 185.347C137.52 185.716 137.531 186.306 136.901 186.664L131.595 189.677C131.232 189.852 130.833 189.941 130.43 189.938C130.027 189.934 129.63 189.837 129.271 189.654Z" fill="#1B0044"/>
<path d="M34.5307 95.6639C34.0069 95.6722 33.4893 95.5493 33.0252 95.3064C31.4799 94.478 30.588 92.3106 30.5823 89.3544C30.5823 82.9371 34.7239 75.141 39.6723 72.3323L73.6461 52.859C74.5548 52.301 75.5913 51.9846 76.6571 51.9398C77.1828 51.9315 77.7023 52.0544 78.1684 52.2973C79.7023 53.12 80.5942 55.2876 80.6113 58.2437C80.6113 64.6611 76.464 72.4629 71.5213 75.2658L37.5475 94.7277C36.6388 95.2926 35.6 95.615 34.5307 95.6639Z" fill="#FF3E6F"/>
<path d="M43.365 87.3855C43.0298 87.5728 42.8594 87.4819 42.8537 87.1188V75.7707C42.8504 75.5967 42.896 75.4252 42.9853 75.2758C43.0747 75.1263 43.2043 75.0049 43.3593 74.9253L46.8874 72.928C48.5577 71.9748 49.6712 72.5366 49.6769 74.3125C49.6353 75.3305 49.3021 76.3152 48.7167 77.1496C49.7734 77.212 50.5007 78.0404 50.5063 79.4873C50.4663 80.6991 50.1144 81.8803 49.4845 82.9168C48.8546 83.9534 47.968 84.8104 46.9101 85.4053L43.365 87.3855ZM46.8703 77.6432C47.3389 77.3752 47.7304 76.9911 48.0071 76.5279C48.2837 76.0648 48.4362 75.5382 48.4497 74.9991C48.4497 73.9551 47.8134 73.6146 46.8646 74.1537L43.9899 75.7821V79.2773L46.8703 77.6432ZM46.8703 84.1683C47.5808 83.7597 48.1744 83.1757 48.5942 82.4723C49.014 81.7689 49.2459 80.9697 49.2678 80.1511C49.2678 78.5624 48.2963 78.0461 46.859 78.8631L43.9786 80.4972V85.7968L46.8703 84.1683Z" fill="white"/>
<path d="M52.3303 77.7851V70.4089C52.3249 70.2344 52.3697 70.0621 52.4593 69.9123C52.5489 69.7624 52.6796 69.6414 52.8359 69.5635L52.9723 69.484C53.3074 69.2911 53.4836 69.3875 53.4836 69.7564V77.1326C53.4836 79.3284 54.6766 79.9696 56.6821 78.8348C57.6368 78.3154 58.4335 77.5485 58.9884 76.6148C59.5433 75.6812 59.8359 74.6153 59.8352 73.5296V66.1534C59.8319 65.9793 59.8775 65.8078 59.9669 65.6583C60.0562 65.5089 60.1858 65.3875 60.3408 65.3079L60.4829 65.2285C60.8124 65.0412 60.9942 65.132 60.9942 65.5008V72.8771C60.9958 74.3578 60.5964 75.8115 59.8382 77.084C59.0801 78.3566 57.9916 79.4007 56.6878 80.1058C53.9722 81.6548 52.3416 80.7923 52.3303 77.7851Z" fill="white"/>
<path d="M65.2551 74.948C64.8801 75.1636 64.7551 74.948 64.9085 74.4827L66.2323 70.7435L62.5963 64.6553C62.4372 64.3602 62.5963 63.9971 62.9712 63.7759L63.1474 63.6794C63.4314 63.5148 63.6189 63.5318 63.7155 63.7475L66.8458 68.9902L69.9478 60.2126C70.0329 59.9032 70.2372 59.64 70.5159 59.4806L70.6863 59.3785C71.084 59.1572 71.2261 59.3784 71.0556 59.838L66.0221 74.0969C65.9355 74.407 65.7318 74.6714 65.4539 74.8345L65.2551 74.948Z" fill="white"/>
</svg>
