<svg width="250" height="239" viewBox="0 0 250 239" fill="none" xmlns="http://www.w3.org/2000/svg">
<path d="M173.579 101.803C168.631 98.9432 159.989 99.2918 154.272 102.577L2.69504 186.77C1.87804 187.225 1.19749 187.89 0.723703 188.695C0.249918 189.501 7.87915e-05 190.418 5.44857e-06 191.352C-0.00135285 192.292 0.251276 193.216 0.731328 194.025C1.21138 194.834 1.90109 195.499 2.72777 195.95L78.1942 237.063C83.1369 239.923 91.7785 239.575 97.5014 236.29L247.643 150.004C248.359 149.592 248.954 149 249.368 148.285C249.782 147.571 250 146.76 250 145.935C250.001 145.088 249.773 144.257 249.339 143.53C248.904 142.802 248.281 142.207 247.534 141.805L173.579 101.803Z" fill="#1E2A7B"/>
<path d="M247.556 141.811C247.736 141.914 247.886 142.063 247.99 142.242C248.094 142.421 248.149 142.625 248.149 142.832C248.149 143.04 248.094 143.244 247.99 143.423C247.886 143.602 247.736 143.751 247.556 143.854L97.5887 229.829C92.2314 232.912 84.1244 233.234 79.4927 230.553L3.3825 188.405C3.21397 188.312 3.07117 188.18 2.96704 188.018C2.8629 187.857 2.80069 187.672 2.78606 187.481C2.77144 187.289 2.80485 187.097 2.88326 186.922C2.96168 186.746 3.08265 186.593 3.23519 186.476L154.266 102.582C159.989 99.3138 168.636 98.9489 173.573 101.814L247.54 141.811H247.556Z" fill="url(#paint0_linear_43_10165)"/>
<path d="M154.697 154.498L103.273 183.175C103.08 183.283 102.862 183.34 102.64 183.34C102.419 183.34 102.201 183.283 102.008 183.175L96.1919 179.836C95.9944 179.724 95.8303 179.562 95.716 179.366C95.6017 179.17 95.5415 178.948 95.5415 178.721C95.5415 178.495 95.6017 178.272 95.716 178.077C95.8303 177.881 95.9944 177.719 96.1919 177.607L147.752 149.111C147.943 149.005 148.158 148.949 148.377 148.949C148.595 148.949 148.81 149.005 149.002 149.111L154.681 152.27C154.879 152.381 155.044 152.541 155.16 152.736C155.276 152.931 155.338 153.153 155.339 153.38C155.341 153.606 155.282 153.829 155.17 154.026C155.057 154.222 154.894 154.385 154.697 154.498Z" fill="#020B4E"/>
<path d="M238.511 136.875L235.172 138.793C231.353 140.972 225.592 141.212 222.291 139.305L171.942 111.876C171.39 111.574 170.928 111.13 170.606 110.59C170.283 110.05 170.114 109.432 170.115 108.804C170.116 108.18 170.284 107.569 170.6 107.032C170.917 106.495 171.37 106.052 171.915 105.747L176.372 103.269L238.511 136.875Z" fill="#020B4E"/>
<path d="M46.4318 214.499L37.7575 209.787C36.9774 209.356 36.3554 209.847 36.3827 210.876C36.4022 211.4 36.5441 211.911 36.7971 212.37C37.05 212.829 37.4069 213.222 37.8394 213.518L46.5082 218.231C47.2938 218.661 47.9103 218.171 47.8885 217.141C47.8694 216.618 47.7277 216.106 47.4747 215.647C47.2217 215.188 46.8646 214.795 46.4318 214.499Z" fill="#020B4E"/>
<path d="M82.155 34.7535C73.6335 39.6564 66.7377 51.5868 66.765 61.3871C66.765 66.2301 68.4998 69.6458 71.2658 71.2583L75.5538 73.7424C72.7879 72.1082 71.0694 68.7252 71.0585 63.8767C71.0257 54.0709 77.9215 42.1569 86.4431 37.2431C90.7311 34.7699 94.6264 34.5193 97.4251 36.1536L93.137 33.664C90.3274 32.0514 86.4431 32.2803 82.155 34.7535Z" fill="url(#paint1_linear_43_10165)"/>
<g opacity="0.3">
<path opacity="0.3" d="M71.4512 67.5263L67.2231 65.271C67.378 65.9302 67.5878 66.5753 67.8505 67.1995L72.0458 69.4385C71.795 68.8186 71.5961 68.179 71.4512 67.5263Z" fill="white"/>
<path opacity="0.3" d="M80.1802 42.3913L75.7721 40.038C75.4502 40.3921 75.1283 40.7462 74.8174 41.1275L79.2254 43.4809C79.5364 43.105 79.8583 42.7454 80.1802 42.3913Z" fill="white"/>
<path opacity="0.3" d="M78.6197 44.2539L74.2225 41.9059C73.9279 42.2763 73.6388 42.6523 73.3606 43.039L77.725 45.3815C78.0087 45.0002 78.3033 44.6243 78.6197 44.2539Z" fill="white"/>
<path opacity="0.3" d="M88.7454 36.1316L84.2445 33.7292C83.7317 33.9472 83.208 34.1977 82.6733 34.481L87.1523 36.8779C87.6924 36.5947 88.2216 36.3441 88.7454 36.1316Z" fill="white"/>
<path opacity="0.3" d="M77.1576 46.1987L72.7932 43.8508C72.5259 44.2376 72.2477 44.6299 72.0186 45.033L76.383 47.37C76.6285 46.9723 76.8903 46.5855 77.1576 46.1987Z" fill="white"/>
<path opacity="0.3" d="M92.1168 35.222L87.5396 32.7814C86.8357 32.8823 86.1421 33.0446 85.4666 33.2662L89.9946 35.685C90.6876 35.471 91.3976 35.3161 92.1168 35.222Z" fill="white"/>
<path opacity="0.3" d="M83.9061 38.9645L79.4653 36.5894C79.0671 36.8999 78.6797 37.2212 78.2979 37.559L82.7223 39.9287C83.1151 39.591 83.5297 39.2696 83.9061 38.9645Z" fill="white"/>
<path opacity="0.3" d="M81.9311 40.6421L77.5067 38.2778C77.1521 38.6101 76.8085 38.9588 76.4702 39.3129L80.8837 41.6772C81.2329 41.3013 81.5765 40.9472 81.9311 40.6421Z" fill="white"/>
<path opacity="0.3" d="M86.1265 37.4449L81.6693 35.0588C81.2165 35.3367 80.7692 35.6036 80.3328 35.9414L84.7736 38.3111C85.2209 38.0006 85.6737 37.7173 86.1265 37.4449Z" fill="white"/>
<path opacity="0.3" d="M71.4948 59.4256L67.1686 57.1158C67.0813 57.6116 67.0104 58.1019 66.9558 58.5921L71.2657 60.8966C71.3275 60.4063 71.4039 59.9159 71.4948 59.4256Z" fill="white"/>
<path opacity="0.3" d="M74.6917 50.2956L70.3273 47.9586C70.1145 48.3781 69.9181 48.803 69.7217 49.2279L74.0861 51.565C74.2552 51.1401 74.479 50.7151 74.6917 50.2956Z" fill="white"/>
<path opacity="0.3" d="M75.8594 48.2094L71.495 45.8723C71.2549 46.2754 71.0313 46.684 70.8076 47.0926L75.172 49.4297C75.3903 49.0211 75.6193 48.6125 75.8594 48.2094Z" fill="white"/>
<path opacity="0.3" d="M72.7877 70.9534L68.6633 68.7743C69.324 69.8001 70.215 70.6581 71.2656 71.2802L74.959 73.4157V73.3666C74.0753 72.7215 73.3359 71.8996 72.7877 70.9534Z" fill="white"/>
<path opacity="0.3" d="M96.3067 35.6413L96.3613 35.5487L93.137 33.6802C91.9952 33.031 90.7083 32.6788 89.3945 32.656L94.1081 35.1728C94.8591 35.2272 95.5989 35.3849 96.3067 35.6413Z" fill="white"/>
<path opacity="0.3" d="M71.0911 64.6121L66.814 62.3241C66.8406 62.8878 66.8971 63.4497 66.9831 64.0074L71.2384 66.2845C71.1603 65.7299 71.1112 65.1717 71.0911 64.6121Z" fill="white"/>
<path opacity="0.3" d="M73.6607 52.4525L69.2963 50.1263C69.1108 50.5622 68.9362 50.9979 68.7507 51.4392L73.1152 53.7653C73.3007 53.3295 73.4698 52.8883 73.6607 52.4525Z" fill="white"/>
<path opacity="0.3" d="M71.1403 61.9483L66.8359 59.6439C66.7977 60.1887 66.7759 60.6899 66.7759 61.2074L71.0694 63.5008C71.0803 62.9779 71.0967 62.4712 71.1403 61.9483Z" fill="white"/>
<path opacity="0.3" d="M72.0734 57.0126L67.7089 54.6974C67.5835 55.1659 67.4634 55.6344 67.3652 56.1083L71.686 58.4181C71.7952 57.9496 71.9261 57.4811 72.0734 57.0126Z" fill="white"/>
<path opacity="0.3" d="M72.777 54.6919L68.4126 52.3712C68.2544 52.8234 68.0961 53.2701 67.9597 53.7222L72.3241 56.0429C72.466 55.5962 72.6188 55.1441 72.777 54.6919Z" fill="white"/>
</g>
<path d="M86.4428 37.2428C77.9213 42.1457 71.0255 54.0761 71.0582 63.8764C71.091 73.6768 78.0249 77.5828 86.541 72.6744C95.0571 67.7661 101.964 55.8356 101.937 46.0734C101.909 36.3112 94.9862 32.329 86.4428 37.2428Z" fill="url(#paint2_linear_43_10165)"/>
<g opacity="0.4">
<path opacity="0.4" d="M97.3868 36.1917C96.1934 35.5179 94.846 35.1632 93.4751 35.1621L72.1985 56.408C71.6121 58.3771 71.2461 60.4052 71.1074 62.455L97.3868 36.1917Z" fill="white"/>
<path opacity="0.4" d="M74.3207 72.7833L101.898 45.2453C101.851 43.726 101.569 42.223 101.064 40.7892L72.1494 69.6618C72.6372 70.8476 73.3782 71.9128 74.3207 72.7833Z" fill="white"/>
</g>
<path d="M51.7131 2.11643C43.1916 7.01932 36.3012 18.9552 36.3284 28.7501C36.3284 33.5985 38.0579 37.0142 40.8293 38.6212L45.1173 41.1053C42.3459 39.4983 40.6274 36.088 40.6165 31.2396C40.6165 21.4338 47.4796 9.51977 56.0066 4.60598C60.2947 2.13819 64.1899 1.88215 66.9886 3.51645L62.7005 1.02144C59.8909 -0.585618 56.0066 -0.351363 51.7131 2.11643Z" fill="url(#paint3_linear_43_10165)"/>
<g opacity="0.3">
<path opacity="0.3" d="M41.0093 34.8954L36.7812 32.6346C36.9379 33.2958 37.1495 33.9426 37.414 34.5685L41.6039 36.8075C41.3555 36.1868 41.1567 35.5474 41.0093 34.8954Z" fill="white"/>
<path opacity="0.3" d="M49.7436 9.75923L45.341 7.41125C45.0192 7.76535 44.6918 8.1249 44.3809 8.50079L48.7889 10.8541C49.0944 10.4674 49.4163 10.1351 49.7436 9.75923Z" fill="white"/>
<path opacity="0.3" d="M48.1561 11.6228L43.7589 9.26941C43.4643 9.6453 43.1752 10.0157 42.897 10.4025L47.2614 12.7505C47.5669 12.3637 47.8615 11.9932 48.1561 11.6228Z" fill="white"/>
<path opacity="0.3" d="M58.3088 3.50011L53.808 1.09229C53.2718 1.31793 52.7474 1.57068 52.2368 1.84952L56.7103 4.24105C57.2504 3.95777 57.7851 3.71257 58.3088 3.50011Z" fill="white"/>
<path opacity="0.3" d="M46.7212 13.5622L42.3567 11.2197C42.0949 11.6065 41.8112 11.9988 41.582 12.3964L45.9465 14.7389C46.1974 14.343 46.4557 13.9508 46.7212 13.5622Z" fill="white"/>
<path opacity="0.3" d="M61.7075 2.5904L57.1303 0.144409C56.4246 0.24534 55.7292 0.407577 55.0518 0.629259L59.5853 3.04799C60.2774 2.83201 60.9877 2.67887 61.7075 2.5904Z" fill="white"/>
<path opacity="0.3" d="M53.4697 6.32211L49.0234 3.95239C48.6307 4.25746 48.2433 4.58434 47.856 4.92209L52.2859 7.28636C52.6732 6.9595 53.066 6.63808 53.4697 6.32211Z" fill="white"/>
<path opacity="0.3" d="M51.4948 7.98372L47.0703 5.61938C46.7157 5.95169 46.372 6.30581 46.0283 6.65991L50.4473 9.01872C50.7964 8.66462 51.1347 8.31603 51.4948 7.98372Z" fill="white"/>
<path opacity="0.3" d="M55.7065 4.80787L51.2493 2.42725C50.7965 2.69963 50.3491 2.972 49.9072 3.30431L54.348 5.67949C54.779 5.36897 55.2318 5.08026 55.7065 4.80787Z" fill="white"/>
<path opacity="0.3" d="M41.0582 26.7892L36.7319 24.4794C36.6446 24.9751 36.5737 25.4654 36.5137 25.9612L40.829 28.2601C40.8908 27.7771 40.9673 27.2867 41.0582 26.7892Z" fill="white"/>
<path opacity="0.3" d="M44.2498 17.6642L39.8853 15.3271C39.6726 15.7466 39.4762 16.1715 39.2798 16.5964L43.6442 18.928C43.8406 18.5031 44.037 18.0782 44.2498 17.6642Z" fill="white"/>
<path opacity="0.3" d="M45.4225 15.5832L41.0581 13.2407C40.8181 13.6438 40.5889 14.0524 40.3652 14.4664L44.7297 16.8035C44.9479 16.384 45.177 15.9809 45.4225 15.5832Z" fill="white"/>
<path opacity="0.3" d="M42.346 38.3218L38.2271 36.1427C38.8863 37.1697 39.7776 38.028 40.8294 38.6486L44.5173 40.7896V40.7351C43.6372 40.086 42.8984 39.2649 42.346 38.3218Z" fill="white"/>
<path opacity="0.3" d="M65.8702 3.01005L65.9193 2.91741L62.7005 1.04884C61.5578 0.400991 60.2717 0.0472232 58.958 0.0192871L63.6716 2.54156C64.4228 2.59423 65.1629 2.75193 65.8702 3.01005Z" fill="white"/>
<path opacity="0.3" d="M40.6547 31.9916L36.3721 29.7091C36.4048 30.292 36.4593 30.8531 36.5412 31.3924L40.7965 33.664C40.7256 33.1302 40.6765 32.5745 40.6547 31.9916Z" fill="white"/>
<path opacity="0.3" d="M43.2186 19.8216L38.8541 17.49C38.6687 17.9258 38.4941 18.3671 38.3086 18.8029L42.673 21.1291C42.864 20.6932 43.0276 20.2574 43.2186 19.8216Z" fill="white"/>
<path opacity="0.3" d="M40.6984 29.3112L36.3994 27.0123C36.3558 27.5571 36.3394 28.0528 36.334 28.5704L40.633 30.8693C40.6384 30.3518 40.6548 29.8342 40.6984 29.3112Z" fill="white"/>
<path opacity="0.3" d="M41.615 24.3813L37.2505 22.0605C37.1251 22.5345 37.005 23.003 36.9014 23.4715L41.2276 25.7813C41.3585 25.3128 41.484 24.8443 41.615 24.3813Z" fill="white"/>
<path opacity="0.3" d="M42.3404 22.0604L37.976 19.7343C37.8232 20.1864 37.665 20.6331 37.5232 21.0853L41.8876 23.4114C42.0295 22.9593 42.1822 22.5071 42.3404 22.0604Z" fill="white"/>
</g>
<path d="M56.0064 4.6063C47.4794 9.5092 40.589 21.445 40.6163 31.2399C40.6436 41.0348 47.583 44.9517 56.1046 40.0379C64.6261 35.1241 71.5219 23.2047 71.4946 13.437C71.4673 3.66935 64.528 -0.307488 56.0064 4.6063Z" fill="url(#paint4_linear_43_10165)"/>
<g opacity="0.4">
<path opacity="0.4" d="M66.9503 3.55468C65.7546 2.88252 64.4054 2.52976 63.0332 2.53052L41.7893 23.7546C41.1974 25.7243 40.8313 27.7547 40.6982 29.8069L66.9503 3.55468Z" fill="white"/>
<path opacity="0.4" d="M43.8843 40.1243L71.462 12.5863C71.4096 11.067 71.1263 9.56446 70.6219 8.13013L41.7075 37.0027C42.1951 38.1901 42.9382 39.2558 43.8843 40.1243Z" fill="white"/>
</g>
<path d="M105.221 117.759C96.6995 122.662 89.8092 134.598 89.8365 144.393C89.8365 149.241 91.5659 152.657 94.3373 154.264L98.6254 156.748C95.854 155.114 94.1355 151.731 94.1245 146.883C94.0973 137.077 100.988 125.163 109.509 120.249C113.803 117.776 117.692 117.525 120.497 119.16L116.209 116.664C113.399 115.057 109.509 115.275 105.221 117.759Z" fill="url(#paint5_linear_43_10165)"/>
<g opacity="0.3">
<path opacity="0.3" d="M94.5171 150.537L90.2891 148.276C90.4465 148.937 90.6582 149.584 90.9219 150.21L95.1117 152.449C94.8609 151.829 94.662 151.19 94.5171 150.537Z" fill="white"/>
<path opacity="0.3" d="M103.246 125.396L98.8378 123.043C98.5159 123.397 98.194 123.751 97.8831 124.133L102.291 126.486C102.624 126.11 102.924 125.751 103.246 125.396Z" fill="white"/>
<path opacity="0.3" d="M101.664 127.259L97.2666 124.906C96.972 125.282 96.6828 125.652 96.4045 126.039L100.769 128.387C101.074 128.006 101.369 127.635 101.664 127.259Z" fill="white"/>
<path opacity="0.3" d="M111.817 119.142L107.316 116.734C106.78 116.96 106.255 117.213 105.745 117.492L110.218 119.883C110.758 119.6 111.293 119.355 111.817 119.142Z" fill="white"/>
<path opacity="0.3" d="M100.229 129.204L95.8646 126.861C95.6027 127.248 95.319 127.64 95.0898 128.038L99.4543 130.38C99.7052 129.985 99.9635 129.592 100.229 129.204Z" fill="white"/>
<path opacity="0.3" d="M115.172 118.233L110.6 115.786C109.894 115.887 109.199 116.05 108.521 116.271L113.055 118.69C113.745 118.475 114.454 118.322 115.172 118.233Z" fill="white"/>
<path opacity="0.3" d="M106.988 121.975L102.548 119.6C102.149 119.905 101.762 120.232 101.38 120.564L105.81 122.934C106.181 122.602 106.574 122.28 106.988 121.975Z" fill="white"/>
<path opacity="0.3" d="M104.997 123.625L100.573 121.261C100.224 121.593 99.8798 121.942 99.5361 122.302L103.955 124.66C104.299 124.306 104.643 123.958 104.997 123.625Z" fill="white"/>
<path opacity="0.3" d="M109.198 120.45L104.735 118.064C104.288 118.342 103.841 118.609 103.399 118.946L107.839 121.322C108.287 121.006 108.74 120.722 109.198 120.45Z" fill="white"/>
<path opacity="0.3" d="M94.5607 142.431L90.24 140.121C90.1527 140.617 90.0817 141.107 90.0217 141.597L94.3316 143.902C94.4044 143.419 94.4807 142.928 94.5607 142.431Z" fill="white"/>
<path opacity="0.3" d="M97.763 133.306L93.3985 130.969C93.1858 131.389 92.9894 131.813 92.793 132.238L97.1574 134.57C97.3429 134.145 97.5447 133.72 97.763 133.306Z" fill="white"/>
<path opacity="0.3" d="M98.9306 131.22L94.5662 128.877C94.3261 129.281 94.097 129.689 93.8733 130.103L98.2377 132.44C98.4559 132.026 98.6851 131.618 98.9306 131.22Z" fill="white"/>
<path opacity="0.3" d="M95.8538 153.953L91.7349 151.774C92.3941 152.801 93.2855 153.659 94.3372 154.28L98.025 156.421V156.366C97.1449 155.717 96.4062 154.896 95.8538 153.953Z" fill="white"/>
<path opacity="0.3" d="M119.372 118.652L119.427 118.56L116.208 116.686C115.064 116.042 113.779 115.69 112.466 115.662L117.179 118.184C117.929 118.233 118.668 118.391 119.372 118.652Z" fill="white"/>
<path opacity="0.3" d="M94.157 147.634L89.8799 145.351C89.9126 145.934 89.9671 146.495 90.049 147.035L94.3043 149.306C94.2334 148.772 94.1843 148.217 94.157 147.634Z" fill="white"/>
<path opacity="0.3" d="M96.7264 135.464L92.362 133.132C92.1765 133.568 92.0019 134.004 91.8164 134.445L96.1808 136.771C96.3663 136.335 96.5354 135.894 96.7264 135.464Z" fill="white"/>
<path opacity="0.3" d="M94.2062 144.954L89.9073 142.655C89.8636 143.2 89.8473 143.695 89.8418 144.213L94.1408 146.512C94.1462 145.994 94.1626 145.477 94.2062 144.954Z" fill="white"/>
<path opacity="0.3" d="M95.1173 140.018L90.7857 137.703C90.6602 138.171 90.5402 138.645 90.4365 139.114L94.7627 141.423C94.8664 140.955 94.9864 140.486 95.1173 140.018Z" fill="white"/>
<path opacity="0.3" d="M95.8482 137.703L91.4838 135.376C91.3256 135.828 91.1674 136.275 91.031 136.727L95.3954 139.054C95.5318 138.601 95.6846 138.155 95.8482 137.703Z" fill="white"/>
</g>
<path d="M109.509 120.249C100.987 125.152 94.0971 137.088 94.1243 146.882C94.1516 156.677 101.091 160.594 109.613 155.68C118.134 150.767 125.03 138.847 125.003 129.079C124.975 119.312 118.036 115.335 109.509 120.249Z" fill="url(#paint6_linear_43_10165)"/>
<g opacity="0.4">
<path opacity="0.4" d="M120.458 119.198C119.262 118.526 117.914 118.172 116.541 118.168L95.2974 139.414C94.7059 141.382 94.3399 143.411 94.2063 145.461L120.458 119.198Z" fill="white"/>
<path opacity="0.4" d="M97.3923 155.768L124.965 128.23C124.916 126.711 124.635 125.208 124.13 123.774L95.2156 152.646C95.7031 153.834 96.4463 154.899 97.3923 155.768Z" fill="white"/>
</g>
<path d="M104.103 40.8165C95.5755 45.7194 88.6852 57.6498 88.7125 67.4447C88.7125 72.2931 90.4419 75.7088 93.2133 77.3159L97.5013 79.8055C94.7354 78.1712 93.0114 74.7828 93.0005 69.9343C93.0005 60.1285 99.869 48.2199 108.391 43.3007C112.679 40.8329 116.574 40.5769 119.373 42.2112L115.085 39.7216C112.275 38.1146 108.391 38.3433 104.103 40.8165Z" fill="url(#paint7_linear_43_10165)"/>
<g opacity="0.3">
<path opacity="0.3" d="M93.3985 73.5899L89.1704 71.3291C89.3253 71.9901 89.5351 72.637 89.7978 73.263L93.9877 75.502C93.7412 74.8811 93.5441 74.2418 93.3985 73.5899Z" fill="white"/>
<path opacity="0.3" d="M102.128 48.454L97.7141 46.0897C97.3922 46.4493 97.0649 46.8034 96.7539 47.1793L101.162 49.5381C101.484 49.1676 101.8 48.8135 102.128 48.454Z" fill="white"/>
<path opacity="0.3" d="M100.545 50.3173L96.1427 47.9694C95.8536 48.3398 95.5644 48.7157 95.2808 49.0971L99.6452 51.445C99.9562 51.0582 100.251 50.6878 100.545 50.3173Z" fill="white"/>
<path opacity="0.3" d="M110.693 42.1947L106.192 39.7922C105.679 40.0047 105.155 40.2607 104.621 40.544L109.1 42.9355C109.64 42.6523 110.169 42.4071 110.693 42.1947Z" fill="white"/>
<path opacity="0.3" d="M99.1052 52.2568L94.7408 49.9143C94.4735 50.3011 94.1952 50.6933 93.9661 51.091L98.3305 53.4335C98.576 53.0358 98.8379 52.6272 99.1052 52.2568Z" fill="white"/>
<path opacity="0.3" d="M114.081 41.2852L109.503 38.8391C108.799 38.9459 108.104 39.108 107.425 39.324L111.958 41.7482C112.651 41.5336 113.361 41.3787 114.081 41.2852Z" fill="white"/>
<path opacity="0.3" d="M105.854 45.0281L101.407 42.6528C101.015 42.9633 100.627 43.2848 100.24 43.6225L104.67 45.9869C105.057 45.6546 105.45 45.3331 105.854 45.0281Z" fill="white"/>
<path opacity="0.3" d="M103.879 46.6837L99.4543 44.314C99.0997 44.6463 98.7561 45.0004 98.4124 45.3545L102.831 47.7133C103.17 47.3647 103.524 47.0105 103.879 46.6837Z" fill="white"/>
<path opacity="0.3" d="M108.08 43.5025L103.622 41.1218C103.17 41.3997 102.722 41.6666 102.28 41.9989L106.727 44.3741C107.163 44.0635 107.616 43.7748 108.08 43.5025Z" fill="white"/>
<path opacity="0.3" d="M93.4425 65.4887L89.1162 63.1735C89.0289 63.6746 88.958 64.1649 88.8979 64.6552L93.2133 66.9596C93.2751 66.4839 93.3515 65.9935 93.4425 65.4887Z" fill="white"/>
<path opacity="0.3" d="M96.6229 56.3586L92.2585 54.0216C92.0403 54.4411 91.8493 54.866 91.6475 55.2909L96.0119 57.6225C96.2247 57.1976 96.4211 56.7781 96.6229 56.3586Z" fill="white"/>
<path opacity="0.3" d="M97.807 54.2612L93.4425 51.9187C93.2025 52.3218 92.9788 52.7359 92.7551 53.1444L97.1196 55.4815C97.3323 55.0838 97.5669 54.6752 97.807 54.2612Z" fill="white"/>
<path opacity="0.3" d="M94.7353 77.0163L90.6108 74.8373C91.2717 75.8615 92.1628 76.7177 93.2131 77.3377L96.9011 79.4787V79.4296C96.0229 78.78 95.2861 77.959 94.7353 77.0163Z" fill="white"/>
<path opacity="0.3" d="M118.254 41.7316L118.303 41.639L115.085 39.7705C113.943 39.1213 112.656 38.7692 111.342 38.7463L116.056 41.2632C116.807 41.3176 117.546 41.4752 118.254 41.7316Z" fill="white"/>
<path opacity="0.3" d="M93.0388 70.6917L88.7561 68.4037C88.7888 68.9866 88.8434 69.5477 88.9253 70.0871L93.186 72.3641C93.1079 71.8096 93.0588 71.2514 93.0388 70.6917Z" fill="white"/>
<path opacity="0.3" d="M95.6026 58.5161L91.2382 56.1899C91.0527 56.6258 90.8781 57.0615 90.6926 57.4973L95.0571 59.8289C95.248 59.3877 95.4171 58.9519 95.6026 58.5161Z" fill="white"/>
<path opacity="0.3" d="M93.0877 68.0063L88.7832 65.7074C88.745 66.2522 88.7232 66.7533 88.7178 67.2654L93.0167 69.5643C93.0222 69.0522 93.0386 68.5293 93.0877 68.0063Z" fill="white"/>
<path opacity="0.3" d="M93.9987 63.0762L89.6343 60.761C89.5088 61.2295 89.3888 61.698 89.2852 62.1665L93.6114 64.4763C93.7423 64.0132 93.895 63.523 93.9987 63.0762Z" fill="white"/>
<path opacity="0.3" d="M94.7243 60.7554L90.3598 58.4347C90.2016 58.8814 90.0434 59.3335 89.907 59.7857L94.2714 62.1064C94.4405 61.6543 94.5661 61.2076 94.7243 60.7554Z" fill="white"/>
</g>
<path d="M108.391 43.3005C99.8691 48.2033 92.9733 60.1392 93.0006 69.9341C93.0278 79.729 99.9673 83.6459 108.489 78.7321C117.01 73.8183 123.901 61.8879 123.901 52.1311C123.901 42.3743 116.912 38.3921 108.391 43.3005Z" fill="url(#paint8_linear_43_10165)"/>
<g opacity="0.4">
<path opacity="0.4" d="M119.335 42.2767C118.139 41.6026 116.79 41.248 115.417 41.2471L94.1736 62.433C93.5843 64.4034 93.2183 66.4335 93.0825 68.4854L119.335 42.2767Z" fill="white"/>
<path opacity="0.4" d="M96.2686 78.8195L123.846 51.2816C123.797 49.7637 123.513 48.2626 123.006 46.8308L94.0918 75.7034C94.578 76.8899 95.3214 77.9541 96.2686 78.8195Z" fill="white"/>
</g>
<path d="M122.81 57.9766C114.288 62.8795 107.398 74.8153 107.425 84.6102C107.425 89.4586 109.155 92.8743 111.926 94.4813L116.214 96.971C113.443 95.3367 111.724 91.9482 111.713 87.0998C111.686 77.294 118.576 65.38 127.103 60.4662C131.391 57.9984 135.287 57.7423 138.085 59.3766L133.797 56.887C130.993 55.2745 127.098 55.5088 122.81 57.9766Z" fill="url(#paint9_linear_43_10165)"/>
<g opacity="0.3">
<path opacity="0.3" d="M112.101 90.7605L107.873 88.4998C108.029 89.1609 108.241 89.8078 108.505 90.4337L112.695 92.6727C112.447 92.052 112.248 91.4126 112.101 90.7605Z" fill="white"/>
<path opacity="0.3" d="M120.835 65.6197L116.427 63.2609C116.099 63.6204 115.778 63.9745 115.467 64.3504L119.875 66.7092C120.186 66.3279 120.507 65.9738 120.835 65.6197Z" fill="white"/>
<path opacity="0.3" d="M119.247 67.4827L114.85 65.1293C114.555 65.5052 114.266 65.8756 113.988 66.2624L118.38 68.6103C118.658 68.2236 118.953 67.8804 119.247 67.4827Z" fill="white"/>
<path opacity="0.3" d="M129.4 59.36L124.899 56.9521C124.363 57.1778 123.838 57.4305 123.328 57.7094L127.801 60.1009C128.342 59.8176 128.876 59.5725 129.4 59.36Z" fill="white"/>
<path opacity="0.3" d="M117.812 69.422L113.448 67.0796C113.186 67.4664 112.902 67.8586 112.673 68.2562L117.038 70.5988C117.285 70.2029 117.543 69.8106 117.812 69.422Z" fill="white"/>
<path opacity="0.3" d="M132.771 58.4508L128.194 56.0048C127.489 56.1083 126.794 56.2705 126.116 56.4896L130.649 58.9084C131.343 58.6975 132.053 58.5444 132.771 58.4508Z" fill="white"/>
<path opacity="0.3" d="M124.561 62.1934L120.115 59.8181C119.722 60.1232 119.334 60.4501 118.947 60.7878L123.377 63.1521C123.764 62.8198 124.157 62.4984 124.561 62.1934Z" fill="white"/>
<path opacity="0.3" d="M122.586 63.8435L118.161 61.4792C117.807 61.8116 117.463 62.1657 117.119 62.5198L121.538 64.8786C121.882 64.5299 122.226 64.1758 122.586 63.8435Z" fill="white"/>
<path opacity="0.3" d="M126.781 60.6677L122.324 58.2871C121.871 58.5649 121.424 58.8319 120.982 59.1642L125.423 61.5393C125.87 61.2288 126.323 60.9401 126.781 60.6677Z" fill="white"/>
<path opacity="0.3" d="M112.149 82.649L107.823 80.3392C107.736 80.835 107.665 81.3252 107.605 81.821L111.92 84.1253C111.98 83.635 112.057 83.1339 112.149 82.649Z" fill="white"/>
<path opacity="0.3" d="M115.346 73.5244L110.982 71.1874C110.769 71.6068 110.573 72.0318 110.376 72.4567L114.741 74.7883C114.932 74.3634 115.128 73.9439 115.346 73.5244Z" fill="white"/>
<path opacity="0.3" d="M116.514 71.4377L112.149 69.0952C111.909 69.4983 111.68 69.9069 111.457 70.3209L115.821 72.658C116.039 72.2385 116.263 71.8409 116.514 71.4377Z" fill="white"/>
<path opacity="0.3" d="M113.437 94.1821L109.318 92.0031C109.977 93.03 110.869 93.8883 111.92 94.509L115.608 96.6499V96.6008C114.73 95.9478 113.991 95.1253 113.437 94.1821Z" fill="white"/>
<path opacity="0.3" d="M136.961 58.8697L137.01 58.7771L133.792 56.9085C132.649 56.2607 131.363 55.9068 130.049 55.8789L134.763 58.4012C135.514 58.4538 136.254 58.6115 136.961 58.8697Z" fill="white"/>
<path opacity="0.3" d="M111.746 87.857L107.463 85.569C107.496 86.1519 107.551 86.713 107.633 87.2523L111.888 89.524C111.817 88.9901 111.768 88.4345 111.746 87.857Z" fill="white"/>
<path opacity="0.3" d="M114.31 75.6817L109.945 73.3556C109.76 73.786 109.585 74.2272 109.4 74.663L113.764 76.9891C113.955 76.5533 114.119 76.1121 114.31 75.6817Z" fill="white"/>
<path opacity="0.3" d="M111.789 85.1716L107.491 82.8727C107.447 83.4174 107.431 83.9186 107.425 84.4307L111.724 86.7296C111.729 86.2121 111.746 85.6946 111.789 85.1716Z" fill="white"/>
<path opacity="0.3" d="M112.706 80.2414L108.342 77.9208C108.216 78.3947 108.096 78.8632 107.992 79.3317L112.319 81.6415C112.444 81.173 112.575 80.7099 112.706 80.2414Z" fill="white"/>
<path opacity="0.3" d="M113.432 77.9207L109.067 75.6C108.914 76.0467 108.751 76.4988 108.614 76.9455L112.979 79.2717C113.121 78.8195 113.268 78.3674 113.432 77.9207Z" fill="white"/>
</g>
<path d="M127.098 60.4665C118.571 65.3694 111.68 77.3053 111.708 87.1002C111.735 96.8951 118.674 100.812 127.196 95.8982C135.717 90.9844 142.613 79.0648 142.586 69.2972C142.559 59.5295 135.619 55.5528 127.098 60.4665Z" fill="url(#paint10_linear_43_10165)"/>
<g opacity="0.4">
<path opacity="0.4" d="M138.041 59.4149C136.846 58.7428 135.496 58.39 134.124 58.3907L112.88 79.604C112.288 81.5737 111.922 83.6041 111.789 85.6563L138.041 59.4149Z" fill="white"/>
<path opacity="0.4" d="M114.975 95.9852L142.553 68.4473C142.501 66.928 142.217 65.4254 141.713 63.9911L112.799 92.8637C113.286 94.051 114.029 95.1167 114.975 95.9852Z" fill="white"/>
</g>
<path d="M166.672 13.6924C158.151 18.5953 151.26 30.5311 151.287 40.326C151.287 45.1744 153.017 48.5901 155.788 50.1972L160.076 52.6867C157.305 51.0797 155.586 47.664 155.576 42.8156C155.576 33.0098 162.439 21.0957 170.966 16.1819C175.254 13.7141 179.149 13.4581 181.948 15.0924L177.66 12.6028C174.85 10.9903 170.966 11.2246 166.672 13.6924Z" fill="url(#paint11_linear_43_10165)"/>
<g opacity="0.3">
<path opacity="0.3" d="M155.968 46.4712L151.74 44.2104C151.897 44.8716 152.108 45.5184 152.373 46.1443L156.563 48.3833C156.315 47.7626 156.116 47.1232 155.968 46.4712Z" fill="white"/>
<path opacity="0.3" d="M164.703 21.3352L160.294 18.9763C159.967 19.3359 159.645 19.69 159.334 20.0659L163.742 22.4247C164.053 22.0488 164.375 21.6893 164.703 21.3352Z" fill="white"/>
<path opacity="0.3" d="M163.115 23.2098L158.718 20.8564C158.423 21.2323 158.134 21.6028 157.856 21.9895L162.22 24.3374C162.526 23.9398 162.82 23.5694 163.115 23.2098Z" fill="white"/>
<path opacity="0.3" d="M173.268 15.0759L168.767 12.6681C168.231 12.8937 167.706 13.1465 167.196 13.4253L171.669 15.8169C172.209 15.5336 172.744 15.2884 173.268 15.0759Z" fill="white"/>
<path opacity="0.3" d="M161.68 25.1385L157.316 22.796C157.054 23.1846 156.798 23.5769 156.547 23.9727L160.911 26.3152C161.155 25.9193 161.411 25.5271 161.68 25.1385Z" fill="white"/>
<path opacity="0.3" d="M176.639 14.1662L172.062 11.7202C171.357 11.8238 170.662 11.9859 169.983 12.2051L174.517 14.6292C175.21 14.4141 175.92 14.2592 176.639 14.1662Z" fill="white"/>
<path opacity="0.3" d="M168.429 17.9092L163.982 15.5341C163.59 15.8391 163.197 16.1659 162.815 16.5037L167.245 18.868C167.632 18.5357 168.025 18.2143 168.429 17.9092Z" fill="white"/>
<path opacity="0.3" d="M166.454 19.5595L162.029 17.1952C161.675 17.5275 161.331 17.8816 160.987 18.2357L165.406 20.5945C165.75 20.2404 166.094 19.8918 166.454 19.5595Z" fill="white"/>
<path opacity="0.3" d="M170.649 16.3837L166.192 14.0031C165.739 14.2754 165.292 14.5478 164.85 14.8801L169.291 17.2553C169.727 16.9448 170.191 16.6724 170.649 16.3837Z" fill="white"/>
<path opacity="0.3" d="M156.017 38.3655L151.691 36.0557C151.604 36.5514 151.533 37.0472 151.473 37.5375L155.788 39.8418C155.848 39.3515 155.925 38.8612 156.017 38.3655Z" fill="white"/>
<path opacity="0.3" d="M159.214 29.2403L154.85 26.9033C154.637 27.3228 154.441 27.7477 154.244 28.1726L158.609 30.5042C158.816 30.0793 158.996 29.6598 159.214 29.2403Z" fill="white"/>
<path opacity="0.3" d="M160.382 27.1537L156.017 24.8112C155.777 25.2143 155.548 25.6229 155.324 26.0369L159.689 28.374C159.907 27.9654 160.142 27.5677 160.382 27.1537Z" fill="white"/>
<path opacity="0.3" d="M157.305 49.9029L153.186 47.7239C153.845 48.7509 154.737 49.6091 155.788 50.2298L159.476 52.3707V52.3217C158.598 51.6686 157.859 50.8462 157.305 49.9029Z" fill="white"/>
<path opacity="0.3" d="M180.829 14.5863L180.878 14.4937L177.659 12.6251C176.517 11.9773 175.231 11.6235 173.917 11.5956L178.631 14.1179C179.382 14.1705 180.122 14.3282 180.829 14.5863Z" fill="white"/>
<path opacity="0.3" d="M155.614 43.5729L151.331 41.2849C151.364 41.8678 151.418 42.4289 151.5 42.9682L155.755 45.2399C155.685 44.706 155.635 44.1504 155.614 43.5729Z" fill="white"/>
<path opacity="0.3" d="M158.178 31.3812L153.813 29.0551C153.628 29.4854 153.453 29.9267 153.268 30.3625L157.632 32.6887C157.823 32.2692 157.987 31.8279 158.178 31.3812Z" fill="white"/>
<path opacity="0.3" d="M155.657 40.887L151.358 38.5881C151.315 39.1329 151.298 39.6341 151.293 40.1462L155.592 42.4451C155.597 41.9276 155.614 41.41 155.657 40.887Z" fill="white"/>
<path opacity="0.3" d="M156.574 35.9576L152.209 33.6368C152.084 34.1108 151.964 34.5793 151.86 35.0478L156.186 37.3576C156.317 36.8945 156.443 36.426 156.574 35.9576Z" fill="white"/>
<path opacity="0.3" d="M157.299 33.6366L152.935 31.3159C152.777 31.7626 152.613 32.2148 152.477 32.6615L156.841 34.9876C156.988 34.5355 157.141 34.1051 157.299 33.6366Z" fill="white"/>
</g>
<path d="M170.966 16.1824C162.439 21.0852 155.548 33.0211 155.576 42.816C155.603 52.6109 162.542 56.5278 171.064 51.614C179.586 46.7002 186.481 34.7807 186.454 25.0131C186.427 15.2454 179.487 11.2686 170.966 16.1824Z" fill="url(#paint12_linear_43_10165)"/>
<g opacity="0.4">
<path opacity="0.4" d="M181.909 15.1312C180.714 14.4591 179.364 14.1063 177.992 14.1071L156.748 35.3202C156.156 37.2899 155.79 39.3204 155.657 41.3726L181.909 15.1312Z" fill="white"/>
<path opacity="0.4" d="M158.843 51.7007L186.421 24.1628C186.369 22.6434 186.085 21.1409 185.581 19.7065L156.667 48.5792C157.155 49.7661 157.898 50.8318 158.843 51.7007Z" fill="white"/>
</g>
<path d="M110.66 10.9251C102.133 15.828 95.2428 27.7584 95.2701 37.5533C95.2701 42.4017 97.005 45.8174 99.7709 47.4245L104.064 49.9141C101.293 48.2798 99.5745 44.8913 99.5636 40.0429C99.5309 30.2371 106.427 18.3231 114.948 13.4147C119.236 10.9415 123.131 10.6909 125.93 12.3252L121.642 9.83559C118.833 8.22308 114.948 8.45188 110.66 10.9251Z" fill="url(#paint13_linear_43_10165)"/>
<g opacity="0.3">
<path opacity="0.3" d="M99.9563 43.6984L95.7283 41.4376C95.8831 42.0986 96.093 42.7455 96.3557 43.3716L100.551 45.6106C100.3 44.9907 100.101 44.3511 99.9563 43.6984Z" fill="white"/>
<path opacity="0.3" d="M108.685 18.5628L104.277 16.2095C103.955 16.5636 103.633 16.9177 103.323 17.299L107.731 19.6578C108.042 19.2765 108.363 18.9169 108.685 18.5628Z" fill="white"/>
<path opacity="0.3" d="M107.103 20.4259L102.706 18.0779C102.411 18.4483 102.122 18.8242 101.844 19.2056L106.208 21.5535C106.514 21.1667 106.808 20.7963 107.103 20.4259Z" fill="white"/>
<path opacity="0.3" d="M117.25 12.3144L112.755 9.91199C112.21 10.1244 111.713 10.3805 111.178 10.6638L115.657 13.0553C116.198 12.7611 116.727 12.516 117.25 12.3144Z" fill="white"/>
<path opacity="0.3" d="M105.663 22.3653L101.298 20.0228C101.031 20.4096 100.753 20.8019 100.524 21.1995L104.888 23.542C105.134 23.1443 105.395 22.7575 105.663 22.3653Z" fill="white"/>
<path opacity="0.3" d="M120.627 11.3936L116.05 8.94751C115.347 9.05368 114.654 9.21582 113.977 9.43236L118.505 11.8566C119.198 11.6426 119.908 11.4877 120.627 11.3936Z" fill="white"/>
<path opacity="0.3" d="M112.411 15.1361L107.971 12.7609C107.572 13.0659 107.185 13.3928 106.798 13.7306L111.228 16.1003C111.62 15.7625 112.013 15.4412 112.411 15.1361Z" fill="white"/>
<path opacity="0.3" d="M110.436 16.7868L106.012 14.4225C105.657 14.7602 105.314 15.1089 104.97 15.463L109.389 17.8218C109.716 17.4732 110.082 17.1191 110.436 16.7868Z" fill="white"/>
<path opacity="0.3" d="M114.626 13.611L110.169 11.2303C109.716 11.5082 109.269 11.7751 108.833 12.1074L113.273 14.4826C113.726 14.1721 114.179 13.8888 114.626 13.611Z" fill="white"/>
<path opacity="0.3" d="M100 35.5976L95.6794 33.2878C95.5867 33.7781 95.5212 34.2738 95.4612 34.7641L99.7711 37.0685C99.8329 36.5782 99.9092 36.0879 100 35.5976Z" fill="white"/>
<path opacity="0.3" d="M103.197 26.4784L98.8324 24.1414C98.6197 24.5608 98.4232 24.9858 98.2268 25.4107L102.591 27.7423C102.782 27.3064 102.984 26.887 103.197 26.4784Z" fill="white"/>
<path opacity="0.3" d="M104.365 24.381L100 22.0385C99.76 22.4416 99.5364 22.8556 99.3127 23.2642L103.677 25.6012C103.895 25.1927 104.124 24.7841 104.365 24.381Z" fill="white"/>
<path opacity="0.3" d="M101.293 47.1249L97.1687 44.9458C97.8296 45.97 98.7206 46.8262 99.771 47.4463L103.464 49.5872V49.5381C102.583 48.8902 101.844 48.0689 101.293 47.1249Z" fill="white"/>
<path opacity="0.3" d="M124.812 11.8131L124.866 11.7206L121.642 9.852C120.5 9.20352 119.213 8.84964 117.9 8.82239L122.613 11.3447C123.364 11.3991 124.104 11.5567 124.812 11.8131Z" fill="white"/>
<path opacity="0.3" d="M99.5962 40.7998L95.3191 38.5117C95.3462 39.0754 95.4027 39.6373 95.4882 40.1951L99.7435 42.4722C99.6671 41.9383 99.6235 41.3772 99.5962 40.7998Z" fill="white"/>
<path opacity="0.3" d="M102.166 28.6246L97.8014 26.2985C97.6159 26.7343 97.4341 27.17 97.2559 27.6058L101.62 29.9375C101.806 29.4962 101.975 29.0604 102.166 28.6246Z" fill="white"/>
<path opacity="0.3" d="M99.6454 38.1148L95.341 35.8159C95.3028 36.3607 95.281 36.8619 95.281 37.3739L99.5745 39.6728C99.5854 39.1553 99.6018 38.6432 99.6454 38.1148Z" fill="white"/>
<path opacity="0.3" d="M100.557 33.1842L96.1921 30.8689C96.0666 31.3374 95.9466 31.8059 95.8484 32.2744L100.169 34.5842C100.3 34.1048 100.442 33.6527 100.557 33.1842Z" fill="white"/>
<path opacity="0.3" d="M101.282 30.8639L96.9177 28.5432C96.7595 28.9899 96.6012 29.4421 96.4648 29.8942L100.829 32.2149C100.987 31.7628 101.124 31.3161 101.282 30.8639Z" fill="white"/>
</g>
<path d="M114.948 13.4039C106.427 18.3068 99.5309 30.2372 99.5636 40.0321C99.5963 49.827 106.53 53.7439 115.046 48.8301C123.562 43.9163 130.469 31.9968 130.442 22.2291C130.415 12.4615 123.475 8.50103 114.948 13.4039Z" fill="url(#paint14_linear_43_10165)"/>
<g opacity="0.4">
<path opacity="0.4" d="M125.892 12.3634C124.699 11.6877 123.351 11.3329 121.98 11.3337L100.704 32.547C100.117 34.5179 99.7508 36.5478 99.6125 38.5993L125.892 12.3634Z" fill="white"/>
<path opacity="0.4" d="M102.826 48.9283L130.404 21.3904C130.352 19.8715 130.071 18.369 129.569 16.9342L100.655 45.8068C101.14 46.9941 101.881 48.06 102.826 48.9283Z" fill="white"/>
</g>
<path d="M71.4621 80.0781C62.9405 84.981 56.0448 96.9114 56.0775 106.712C56.0775 111.555 57.8069 114.97 60.5729 116.583L64.8664 119.067C62.095 117.433 60.3765 114.044 60.3656 109.196C60.3656 99.39 67.2286 87.4814 75.7501 82.5676C80.0436 80.0944 83.9334 79.8438 86.7321 81.4781L82.4496 78.9885C79.6345 77.376 75.7501 77.6048 71.4621 80.0781Z" fill="url(#paint15_linear_43_10165)"/>
<g opacity="0.3">
<path opacity="0.3" d="M60.7583 112.852L56.5303 110.596C56.6877 111.255 56.8994 111.9 57.1631 112.525L61.3529 114.764C61.1021 114.144 60.9032 113.504 60.7583 112.852Z" fill="white"/>
<path opacity="0.3" d="M69.487 87.7155L65.079 85.3621C64.7571 85.7162 64.4352 86.0703 64.1243 86.4516L68.5323 88.8105C68.8433 88.4291 69.1652 88.0696 69.487 87.7155Z" fill="white"/>
<path opacity="0.3" d="M67.9049 89.5784L63.5078 87.2305C63.2132 87.6009 62.924 87.9768 62.6458 88.3636L67.0102 90.7061C67.3157 90.3193 67.6103 89.9488 67.9049 89.5784Z" fill="white"/>
<path opacity="0.3" d="M78.0741 81.4563L73.5732 79.0538C73.0277 79.2717 72.5312 79.5223 71.9966 79.8056L76.4756 82.1971C76.9955 81.9233 77.529 81.676 78.0741 81.4563Z" fill="white"/>
<path opacity="0.3" d="M66.4701 91.5179L62.1057 89.1754C61.8384 89.5622 61.5602 89.9545 61.3311 90.3576L65.6955 92.6947C65.9355 92.297 66.2028 91.9102 66.4701 91.5179Z" fill="white"/>
<path opacity="0.3" d="M81.4238 80.5467L76.8466 78.1007C76.1438 78.2075 75.4506 78.3696 74.7734 78.5856L79.3016 81.0097C79.9946 80.7957 80.7045 80.6409 81.4238 80.5467Z" fill="white"/>
<path opacity="0.3" d="M73.2132 84.2891L68.7724 81.9139C68.3742 82.2245 67.9869 82.5459 67.605 82.8836L72.0349 85.2534C72.424 84.9301 72.8168 84.6087 73.2132 84.2891Z" fill="white"/>
<path opacity="0.3" d="M71.2383 85.9453L66.8139 83.5756C66.4593 83.9079 66.1156 84.2619 65.7773 84.616L70.1964 86.9749C70.5401 86.6262 70.8837 86.2721 71.2383 85.9453Z" fill="white"/>
<path opacity="0.3" d="M75.4336 82.7636L70.9818 80.4103C70.5345 80.6881 70.0872 80.955 69.6453 81.2873L74.086 83.6625C74.5279 83.3248 74.9808 83.0415 75.4336 82.7636Z" fill="white"/>
<path opacity="0.3" d="M60.8019 104.75L56.4812 102.435C56.3884 102.936 56.323 103.427 56.2629 103.917L60.5728 106.221C60.6383 105.72 60.7146 105.23 60.8019 104.75Z" fill="white"/>
<path opacity="0.3" d="M63.9988 95.6203L59.6344 93.2832C59.4216 93.7027 59.2252 94.1276 59.0288 94.5525L63.3932 96.8841C63.5842 96.4646 63.786 96.0397 63.9988 95.6203Z" fill="white"/>
<path opacity="0.3" d="M65.1663 93.5339L60.8019 91.1969C60.5673 91.6 60.3382 92.0086 60.1145 92.4172L64.4789 94.7542C64.6972 94.3456 64.9263 93.937 65.1663 93.5339Z" fill="white"/>
<path opacity="0.3" d="M62.0947 116.277L57.9758 114.098C58.6331 115.125 59.5226 115.983 60.5727 116.604L64.266 118.74V118.691C63.388 118.039 62.6497 117.219 62.0947 116.277Z" fill="white"/>
<path opacity="0.3" d="M85.6135 80.9553L85.6681 80.8626L82.4494 78.9941C81.3056 78.345 80.0169 77.9928 78.7014 77.97L83.4205 80.4868C84.1696 80.5417 84.9075 80.6993 85.6135 80.9553Z" fill="white"/>
<path opacity="0.3" d="M60.3982 109.953L56.1211 107.665C56.1538 108.248 56.2083 108.809 56.2902 109.348L60.5455 111.625C60.4746 111.091 60.4255 110.53 60.3982 109.953Z" fill="white"/>
<path opacity="0.3" d="M62.9676 97.7772L58.6032 95.451C58.4122 95.8869 58.2431 96.3227 58.0576 96.7585L62.422 99.0901C62.6075 98.6489 62.7985 98.213 62.9676 97.7772Z" fill="white"/>
<path opacity="0.3" d="M60.4472 107.267L56.1428 104.969C56.1046 105.513 56.0828 106.014 56.0828 106.527L60.3817 108.825C60.3872 108.313 60.4035 107.79 60.4472 107.267Z" fill="white"/>
<path opacity="0.3" d="M61.3583 102.337L57.0267 100.022C56.8957 100.49 56.7757 100.959 56.6775 101.427L61.0037 103.742C61.1073 103.29 61.2328 102.805 61.3583 102.337Z" fill="white"/>
<path opacity="0.3" d="M62.0894 100.022L57.725 97.7012C57.5668 98.1479 57.4086 98.6 57.2722 99.0522L61.6366 101.373C61.773 100.915 61.9258 100.469 62.0894 100.022Z" fill="white"/>
</g>
<path d="M75.7501 82.5891C67.2286 87.492 60.3383 99.4224 60.3656 109.217C60.3928 119.012 67.3323 122.929 75.8538 118.021C84.3754 113.112 91.2712 101.182 91.2439 91.4198C91.2166 81.6576 84.2772 77.6536 75.7501 82.5891Z" fill="url(#paint16_linear_43_10165)"/>
<g opacity="0.4">
<path opacity="0.4" d="M86.6996 81.4997C85.5041 80.8263 84.1551 80.4717 82.7825 80.4701L61.5059 101.689C60.9187 103.658 60.5527 105.686 60.4148 107.736L86.6996 81.4997Z" fill="white"/>
<path opacity="0.4" d="M63.6278 118.081L91.2055 90.5484C91.1579 89.0291 90.8765 87.5261 90.3709 86.0923L61.4565 114.965C61.9407 116.151 62.6822 117.215 63.6278 118.081Z" fill="white"/>
</g>
<defs>
<linearGradient id="paint0_linear_43_10165" x1="125.461" y1="108.21" x2="125.461" y2="209.477" gradientUnits="userSpaceOnUse">
<stop stop-color="#9346A0"/>
<stop offset="1" stop-color="#480D7E"/>
</linearGradient>
<linearGradient id="paint1_linear_43_10165" x1="88.849" y1="40.1358" x2="73.6932" y2="59.3655" gradientUnits="userSpaceOnUse">
<stop stop-color="#FF8B5B"/>
<stop offset="1" stop-color="#8B0F61"/>
</linearGradient>
<linearGradient id="paint2_linear_43_10165" x1="71.0582" y1="54.9586" x2="101.937" y2="54.9586" gradientUnits="userSpaceOnUse">
<stop stop-color="#FF8B5B"/>
<stop offset="1" stop-color="#8B0F61"/>
</linearGradient>
<linearGradient id="paint3_linear_43_10165" x1="58.407" y1="7.49871" x2="43.2513" y2="26.7339" gradientUnits="userSpaceOnUse">
<stop stop-color="#FF8B5B"/>
<stop offset="1" stop-color="#8B0F61"/>
</linearGradient>
<linearGradient id="paint4_linear_43_10165" x1="40.6163" y1="22.3221" x2="71.4946" y2="22.3221" gradientUnits="userSpaceOnUse">
<stop stop-color="#FF8B5B"/>
<stop offset="1" stop-color="#8B0F61"/>
</linearGradient>
<linearGradient id="paint5_linear_43_10165" x1="115.014" y1="118.495" x2="95.3117" y2="144.339" gradientUnits="userSpaceOnUse">
<stop stop-color="#FF8B5B"/>
<stop offset="1" stop-color="#8B0F61"/>
</linearGradient>
<linearGradient id="paint6_linear_43_10165" x1="94.1243" y1="137.965" x2="125.003" y2="137.965" gradientUnits="userSpaceOnUse">
<stop stop-color="#FF8B5B"/>
<stop offset="1" stop-color="#8B0F61"/>
</linearGradient>
<linearGradient id="paint7_linear_43_10165" x1="110.791" y1="46.1934" x2="95.6407" y2="65.4286" gradientUnits="userSpaceOnUse">
<stop stop-color="#FF8B5B"/>
<stop offset="1" stop-color="#8B0F61"/>
</linearGradient>
<linearGradient id="paint8_linear_43_10165" x1="93.0006" y1="61.0217" x2="123.879" y2="61.0217" gradientUnits="userSpaceOnUse">
<stop stop-color="#FF8B5B"/>
<stop offset="1" stop-color="#8B0F61"/>
</linearGradient>
<linearGradient id="paint9_linear_43_10165" x1="129.498" y1="63.3589" x2="114.342" y2="82.594" gradientUnits="userSpaceOnUse">
<stop stop-color="#FF8B5B"/>
<stop offset="1" stop-color="#8B0F61"/>
</linearGradient>
<linearGradient id="paint10_linear_43_10165" x1="111.708" y1="78.1824" x2="142.586" y2="78.1824" gradientUnits="userSpaceOnUse">
<stop stop-color="#FF8B5B"/>
<stop offset="1" stop-color="#8B0F61"/>
</linearGradient>
<linearGradient id="paint11_linear_43_10165" x1="173.366" y1="19.0747" x2="158.21" y2="38.3099" gradientUnits="userSpaceOnUse">
<stop stop-color="#FF8B5B"/>
<stop offset="1" stop-color="#8B0F61"/>
</linearGradient>
<linearGradient id="paint12_linear_43_10165" x1="155.576" y1="33.8982" x2="186.454" y2="33.8982" gradientUnits="userSpaceOnUse">
<stop stop-color="#FF8B5B"/>
<stop offset="1" stop-color="#8B0F61"/>
</linearGradient>
<linearGradient id="paint13_linear_43_10165" x1="117.354" y1="16.302" x2="102.198" y2="35.5372" gradientUnits="userSpaceOnUse">
<stop stop-color="#FF8B5B"/>
<stop offset="1" stop-color="#8B0F61"/>
</linearGradient>
<linearGradient id="paint14_linear_43_10165" x1="99.5636" y1="31.1306" x2="130.442" y2="31.1306" gradientUnits="userSpaceOnUse">
<stop stop-color="#FF8B5B"/>
<stop offset="1" stop-color="#8B0F61"/>
</linearGradient>
<linearGradient id="paint15_linear_43_10165" x1="85.7992" y1="76.9075" x2="61.3406" y2="106.665" gradientUnits="userSpaceOnUse">
<stop stop-color="#FF8B5B"/>
<stop offset="1" stop-color="#8B0F61"/>
</linearGradient>
<linearGradient id="paint16_linear_43_10165" x1="60.3656" y1="100.283" x2="91.2439" y2="100.283" gradientUnits="userSpaceOnUse">
<stop stop-color="#FF8B5B"/>
<stop offset="1" stop-color="#8B0F61"/>
</linearGradient>
</defs>
</svg>
