<svg width="250" height="248" viewBox="0 0 250 248" fill="none" xmlns="http://www.w3.org/2000/svg">
<path d="M29.8045 105.422C59.5161 89.7833 107.836 89.8106 137.411 105.422C154.876 114.675 161.97 127.336 158.693 139.364C156.506 131.116 149.395 123.125 137.411 116.778C107.836 101.139 59.5161 101.107 29.8045 116.745C17.5906 123.158 10.7917 134.404 8.6202 142.762C5.27272 130.663 12.1044 114.708 29.8045 105.422Z" fill="#92A1FD"/>
<path d="M166.674 138.25L166.707 150.108C166.707 156.854 164.475 164.638 162.276 168.199C159.744 172.285 156.566 175.846 148.777 181.74L147.01 169.177C147.01 169.177 164.656 148.546 166.674 138.25Z" fill="#92A1FD"/>
<path d="M136.426 171.356C126.581 175.213 123.047 176.382 119.443 177.436C112.424 179.455 105.242 180.858 97.9794 181.631C85.2358 183.009 72.3619 182.606 59.7296 180.435C47.4063 178.25 35.0884 174.322 24.231 167.768C8.10071 158.028 0 139.566 0 139.566L0.0492757 148.502C0.0820942 161.3 8.14444 174.071 24.2747 183.827C30.3944 187.469 36.9182 190.388 43.7142 192.522C55.9612 196.413 68.7297 198.418 81.5812 198.471C94.8617 198.471 119.448 196.799 136.426 187.907V171.356Z" fill="#92A1FD"/>
<path d="M136.437 187.907L176.569 210.106L176.536 198.722L136.437 176.546V187.907Z" fill="#92A1FD"/>
<path d="M148.246 169.799C163.463 161.06 166.515 147.721 166.679 138.392V137.791C166.679 137.703 166.679 137.61 166.679 137.523C166.684 136.46 166.613 135.397 166.466 134.344C166.444 133.96 166.389 133.578 166.302 133.202C166.182 132.465 166.017 131.717 165.837 130.979C165.777 130.739 165.29 129.078 165.104 128.478C165.011 128.194 164.891 127.931 164.803 127.62C164.59 127.074 164.382 126.528 164.158 126.03C164.005 125.703 163.857 125.375 163.704 125.042C163.551 124.709 163.315 124.244 163.102 123.857C162.79 123.256 161.767 121.502 161.587 121.229C161.319 120.781 161.04 120.35 160.717 119.924C160.717 119.88 157.364 115.68 157.08 115.352C156.495 114.724 155.893 114.09 155.248 113.462C154.602 112.834 153.88 112.113 153.131 111.468C151.058 109.657 148.865 107.987 146.567 106.47C145.752 105.924 144.899 105.378 144.029 104.832L142.541 103.947C110.111 85.1346 57.2134 85.1346 24.5919 103.947C24.0449 104.247 23.5526 104.547 23.0439 104.848C22.0648 105.449 21.1186 106.061 20.1887 106.678C19.7238 106.989 19.2698 107.306 18.8213 107.623C17.9188 108.251 17.0655 108.912 16.2232 109.556C14.6185 110.811 13.0846 112.153 11.6286 113.577C10.9339 114.265 10.2447 114.969 9.61573 115.674C8.98671 116.379 8.37952 117.072 7.79426 117.777C6.67592 119.159 5.65782 120.62 4.74765 122.147C1.42752 127.609 -0.175132 133.334 0.0163092 139.047C0.377312 151.064 8.41234 163.005 24.198 172.17C52.7993 188.759 93.1167 193.2 136.459 176.578L179.008 200.006L182.913 188.846L148.246 169.799ZM126.876 170.444C113.792 174.989 98.7998 178.168 83.0032 178.168C62.1361 178.168 42.7022 173.563 28.2675 165.178C15.5613 157.815 8.39593 148.442 8.12791 138.812C7.99299 134.643 9.19815 130.455 11.7434 126.249C12.4466 125.089 13.225 123.976 14.0735 122.917C14.5713 122.3 15.0964 121.704 15.6215 121.114C16.1466 120.525 16.7646 119.918 17.3007 119.377C18.5418 118.163 19.8473 117.016 21.2115 115.942C21.9281 115.395 22.6939 114.8 23.476 114.265L24.6356 113.451C25.4889 112.905 26.375 112.315 27.2009 111.812C27.6658 111.545 28.1636 111.266 28.6285 110.977C43.1999 102.587 62.7378 97.9546 83.6486 97.9546C104.559 97.9546 124.004 102.576 138.346 110.9L138.991 111.288C139.232 111.424 139.473 111.561 139.817 111.785C140.583 112.249 141.322 112.714 142.071 113.222C144.078 114.543 145.99 116.003 147.792 117.591C148.378 118.088 148.919 118.613 149.564 119.257C150.046 119.738 150.511 120.23 150.976 120.727C151.523 121.388 153.607 124.004 154.175 124.73C154.356 125.004 154.536 125.277 154.684 125.528C154.832 125.779 155.647 127.134 155.904 127.609C156.068 127.91 156.221 128.226 156.336 128.467C156.451 128.707 156.593 129.013 156.697 129.248C156.867 129.652 157.031 130.056 157.195 130.477L157.408 131.078C157.556 131.542 157.884 132.716 157.955 132.924C158.092 133.47 158.212 134.016 158.3 134.563C158.332 134.683 158.365 134.923 158.393 135.043C158.394 135.179 158.408 135.315 158.436 135.447C158.53 136.144 158.576 136.847 158.573 137.55V138.271C158.453 145.471 154.443 152.61 146.977 158.935C145.276 160.35 134.091 167.942 126.865 170.444H126.876Z" fill="#D0D5FF"/>
<path d="M176.355 190.649C172.932 194.43 170.679 199.12 169.868 204.152C169.731 205.026 169.66 205.91 169.655 206.795C169.655 210.526 170.984 213.153 173.112 214.388L229.745 247.211C227.618 245.971 226.299 243.343 226.288 239.607C226.288 234.309 228.651 228.945 231.862 224.826C233.45 222.735 235.385 220.932 237.583 219.495C239.651 218.19 242.32 217.163 244.793 217.709C245.403 217.834 245.99 218.055 246.532 218.364L189.647 185.432C184.943 182.865 179.364 187.35 176.355 190.649Z" fill="url(#paint0_linear_43_10609)"/>
<path d="M238.109 219.184C231.545 222.969 226.278 232.113 226.299 239.607C226.321 247.101 231.621 250.16 238.191 246.375C244.76 242.59 250.022 233.44 250 225.946C249.978 218.452 244.645 215.415 238.109 219.184Z" fill="#833AFF"/>
<path d="M66.8184 7.83833L80.4654 15.8624L94.1069 8.02405L80.4654 0L66.8184 7.83833Z" fill="white"/>
<path d="M80.4653 137.381L94.1069 129.543V8.02417L80.4653 15.8625V137.381Z" fill="#92A1FD"/>
<path d="M66.8184 129.357L80.4654 137.381V15.8624L66.8184 7.83838V129.357Z" fill="#D0D5FF"/>
<path d="M102.24 60.0466L115.882 68.0706L129.529 60.2323L115.882 52.2083L102.24 60.0466Z" fill="url(#paint1_linear_43_10609)"/>
<path d="M115.882 148.213L129.529 140.375V60.2324L115.882 68.0708V148.213Z" fill="url(#paint2_linear_43_10609)"/>
<path d="M102.24 140.189L115.882 148.213V68.0707L102.24 60.0466V140.189Z" fill="url(#paint3_linear_43_10609)"/>
<path d="M39.5298 49.204L53.1768 57.228L66.8183 49.3897L53.1768 41.3711L39.5298 49.204Z" fill="url(#paint4_linear_43_10609)"/>
<path d="M53.1768 155.352L66.8183 147.519V49.3899L53.1768 57.2282V155.352Z" fill="url(#paint5_linear_43_10609)"/>
<path d="M39.5298 147.328L53.1768 155.352V57.2281L39.5298 49.2041V147.328Z" fill="url(#paint6_linear_43_10609)"/>
<path d="M84.77 90.34L98.417 98.3586L112.059 90.5258L98.417 82.5017L84.77 90.34Z" fill="#5766C4"/>
<path d="M98.417 167.456L112.059 159.618V90.5259L98.417 98.3587V167.456Z" fill="#020B4E"/>
<path d="M84.77 159.432L98.417 167.456V98.3587L84.77 90.3401V159.432Z" fill="#1E2A7B"/>
<defs>
<linearGradient id="paint0_linear_43_10609" x1="198.732" y1="226.449" x2="214.665" y2="198.043" gradientUnits="userSpaceOnUse">
<stop stop-color="#9346A0"/>
<stop offset="1" stop-color="#480D7E"/>
</linearGradient>
<linearGradient id="paint1_linear_43_10609" x1="115.882" y1="53.4755" x2="115.882" y2="77.0451" gradientUnits="userSpaceOnUse">
<stop stop-color="#9346A0"/>
<stop offset="1" stop-color="#480D7E"/>
</linearGradient>
<linearGradient id="paint2_linear_43_10609" x1="97.0714" y1="78.6238" x2="111.535" y2="93.1131" gradientUnits="userSpaceOnUse">
<stop stop-color="#9346A0"/>
<stop offset="1" stop-color="#480D7E"/>
</linearGradient>
<linearGradient id="paint3_linear_43_10609" x1="109.061" y1="67.3497" x2="109.061" y2="152.987" gradientUnits="userSpaceOnUse">
<stop stop-color="#9346A0"/>
<stop offset="1" stop-color="#480D7E"/>
</linearGradient>
<linearGradient id="paint4_linear_43_10609" x1="53.1768" y1="42.5837" x2="53.1768" y2="66.9508" gradientUnits="userSpaceOnUse">
<stop stop-color="#FF8B5B"/>
<stop offset="1" stop-color="#8B0F61"/>
</linearGradient>
<linearGradient id="paint5_linear_43_10609" x1="59.9975" y1="112.381" x2="59.9975" y2="42.8625" gradientUnits="userSpaceOnUse">
<stop stop-color="#FF8B5B"/>
<stop offset="1" stop-color="#8B0F61"/>
</linearGradient>
<linearGradient id="paint6_linear_43_10609" x1="54.495" y1="154.309" x2="44.894" y2="92.7943" gradientUnits="userSpaceOnUse">
<stop stop-color="#FF8B5B"/>
<stop offset="1" stop-color="#8B0F61"/>
</linearGradient>
</defs>
</svg>
