<svg width="252" height="268" viewBox="0 0 252 268" fill="none" xmlns="http://www.w3.org/2000/svg">
<path d="M121.81 256.437C185.585 256.437 237.285 208.248 237.285 148.803C237.285 89.3578 185.585 41.1682 121.81 41.1682C58.0342 41.1682 6.33398 89.3578 6.33398 148.803C6.33398 208.248 58.0342 256.437 121.81 256.437Z" fill="#E0E6FF"/>
<path d="M122.47 13.2664L85.9431 27.0356L81.8203 81.2448L85.217 127.818L125.403 130.846L166.168 129.718L169.076 77.3866L165.643 36.3197L122.47 13.2664Z" fill="#26255C"/>
<path d="M88.0023 82.0746C100.03 89.0797 99.8743 61.8088 89.7498 57.6638C76.36 52.1806 79.6172 77.1955 88.0023 82.0746Z" fill="#FFA6A6"/>
<path d="M95.0667 127.741C95.0667 127.741 78.3867 75.8188 88.9461 51.2895C96.7404 33.2185 108.756 10.9184 127.787 2.88477C106.094 -3.3288 96.2933 4.68576 86.1155 16.1034C75.9377 27.5211 77.4104 41.1719 70.9698 54.7462C57.6906 82.7512 35.2798 146.332 53.3299 146.363L95.0667 127.741Z" fill="#373585"/>
<path d="M45.7691 160.083L28.4287 255.516L147.871 259.168L158.041 245.911L76.5651 236.845L62.367 234.294L72.0238 145.61H54.0599L45.7691 160.083Z" fill="#FFA6A6"/>
<path d="M208.142 163.979L222.595 252.751L104.707 259.167V247.031L190.646 242.308L181.884 149.51H199.852L208.142 163.979Z" fill="#FFA6A6"/>
<path d="M187.397 138.758L138.494 118.71H112.35L59.5776 140.088C60.6812 142.383 59.1142 143.557 60.271 145.824C60.513 146.298 60.7428 146.776 60.9766 147.25H187.098C187.709 143.247 187.393 142.777 187.397 138.758Z" fill="#FFA6A6"/>
<path d="M185.744 198.702C194.096 201.157 205.332 196.974 215.584 190.696C216.342 190.232 216.913 189.546 217.204 188.746C217.496 187.945 217.491 187.077 217.192 186.279L207.921 161.7C206.507 156.941 204.066 152.501 200.746 148.653C197.427 144.804 193.298 141.628 188.615 139.32C170.84 130.525 151.453 123.887 151.453 123.887C151.453 123.887 126.917 146.986 99.4928 123.887C99.4928 123.887 79.5516 129.447 61.3661 138.999C52.5798 143.613 46.0607 151.229 43.1847 160.239L35.3124 185.025C34.9149 186.285 34.9859 187.633 35.5139 188.85C36.0419 190.068 36.9959 191.083 38.221 191.732C48.7023 197.311 57.7233 198.431 65.2592 195.009L68.7667 182.83L76.0441 244.756L68.0241 264.169L182.823 267.564L173.613 255.527L180.944 181.61L185.744 198.702Z" fill="#A352FF"/>
<path d="M101.622 246.083C105.031 246.083 139.113 214.728 164.104 246.083H101.622Z" fill="#FFA6A6"/>
<path d="M7.36772 252.525H244.616C246.574 252.525 248.452 253.251 249.837 254.541C251.222 255.832 252 257.583 252 259.408V268H0V259.393C0.00433456 257.573 0.781967 255.828 2.16274 254.541C3.54352 253.254 5.41501 252.529 7.36772 252.525Z" fill="#323078"/>
<path d="M78.2473 176.532L57.0918 219.114V176.532H78.2473Z" fill="#B2B5F0"/>
<path d="M80.8687 176.532L57.0918 224.387V219.114L78.2473 176.532H80.8687Z" fill="#B2B5F0"/>
<path d="M83.486 176.532L57.0918 229.66V224.387L80.8687 176.532H83.486Z" fill="#B2B5F0"/>
<path d="M86.1073 176.532L57.0918 234.929V229.66L83.486 176.532H86.1073Z" fill="#B2B5F0"/>
<path d="M88.7246 176.532L57.0918 240.202V234.929L86.1073 176.532H88.7246Z" fill="#B2B5F0"/>
<path d="M91.346 176.532L57.0918 245.475V240.202L88.7246 176.532H91.346Z" fill="#B1B5F0"/>
<path d="M93.9632 176.532L57.0918 250.747V245.475L91.346 176.532H93.9632Z" fill="#B1B4F0"/>
<path d="M96.5846 176.532L57.0918 256.017V250.747L93.9632 176.532H96.5846Z" fill="#B1B4F0"/>
<path d="M99.2019 176.532L57.0918 261.289V256.017L96.5846 176.532H99.2019Z" fill="#B1B4EF"/>
<path d="M101.823 176.532L59.508 261.695H57.0918V261.289L99.2019 176.532H101.823Z" fill="#B0B3EF"/>
<path d="M104.441 176.532L62.1294 261.695H59.5081L101.823 176.532H104.441Z" fill="#B0B3EF"/>
<path d="M107.062 176.532L64.7464 261.695H62.1292L104.44 176.532H107.062Z" fill="#AFB3EF"/>
<path d="M109.679 176.532L67.3679 261.695H64.7466L107.062 176.532H109.679Z" fill="#AFB2EF"/>
<path d="M112.3 176.532L69.9852 261.695H67.3679L109.679 176.532H112.3Z" fill="#AEB2EF"/>
<path d="M114.918 176.532L72.6065 261.695H69.9851L112.3 176.532H114.918Z" fill="#AEB1EE"/>
<path d="M117.539 176.532L75.2237 261.695H72.6064L114.918 176.532H117.539Z" fill="#ADB1EE"/>
<path d="M120.156 176.532L77.8453 261.695H75.2239L117.539 176.532H120.156Z" fill="#ADB0EE"/>
<path d="M122.778 176.532L80.4625 261.695H77.8452L120.156 176.532H122.778Z" fill="#ACB0EE"/>
<path d="M125.395 176.532L83.0838 261.695H80.4624L122.778 176.532H125.395Z" fill="#ABAFED"/>
<path d="M128.016 176.532L85.701 261.695H83.0837L125.395 176.532H128.016Z" fill="#AAAFED"/>
<path d="M130.634 176.532L88.3225 261.695H85.7012L128.016 176.532H130.634Z" fill="#AAAEED"/>
<path d="M133.255 176.532L90.9395 261.695H88.3223L130.633 176.532H133.255Z" fill="#A9ADEC"/>
<path d="M135.876 176.532L93.5611 261.695H90.9397L133.255 176.532H135.876Z" fill="#A8ACEC"/>
<path d="M138.493 176.532L96.1783 261.695H93.561L135.876 176.532H138.493Z" fill="#A7ACEC"/>
<path d="M141.115 176.532L98.7998 261.695H96.1785L138.494 176.532H141.115Z" fill="#A6ABEB"/>
<path d="M143.732 176.532L101.417 261.695H98.7996L141.115 176.532H143.732Z" fill="#A5AAEB"/>
<path d="M146.354 176.532L104.038 261.695H101.417L143.732 176.532H146.354Z" fill="#A4A9EB"/>
<path d="M148.971 176.532L106.66 261.695H104.038L146.354 176.532H148.971Z" fill="#A3A9EA"/>
<path d="M151.592 176.532L109.277 261.695H106.66L148.971 176.532H151.592Z" fill="#A2A8EA"/>
<path d="M154.209 176.532L111.894 261.695H109.277L151.592 176.532H154.209Z" fill="#A1A7E9"/>
<path d="M156.831 176.532L114.516 261.695H111.894L154.209 176.532H156.831Z" fill="#A0A6E9"/>
<path d="M159.448 176.532L117.133 261.695H114.516L156.831 176.532H159.448Z" fill="#9FA5E8"/>
<path d="M162.069 176.532L119.754 261.695H117.133L159.448 176.532H162.069Z" fill="#9EA4E8"/>
<path d="M164.687 176.532L122.376 261.695H119.754L162.069 176.532H164.687Z" fill="#9DA3E8"/>
<path d="M167.308 176.532L124.993 261.695H122.376L164.687 176.532H167.308Z" fill="#9CA2E7"/>
<path d="M169.925 176.532L127.614 261.695H124.993L167.308 176.532H169.925Z" fill="#9BA1E7"/>
<path d="M172.547 176.532L130.232 261.695H127.614L169.925 176.532H172.547Z" fill="#99A0E6"/>
<path d="M175.164 176.532L132.853 261.695H130.231L172.547 176.532H175.164Z" fill="#989FE6"/>
<path d="M177.785 176.532L135.47 261.695H132.853L175.164 176.532H177.785Z" fill="#979EE5"/>
<path d="M180.402 176.532L138.091 261.695H135.47L177.785 176.532H180.402Z" fill="#959CE4"/>
<path d="M183.024 176.532L140.709 261.695H138.092L180.403 176.532H183.024Z" fill="#949BE4"/>
<path d="M185.641 176.532L143.33 261.695H140.709L183.024 176.532H185.641Z" fill="#939AE3"/>
<path d="M188.263 176.532L145.948 261.695H143.33L185.641 176.532H188.263Z" fill="#9199E3"/>
<path d="M190.416 176.532L190.798 176.701L148.569 261.695H145.947L188.262 176.532H190.416Z" fill="#9098E2"/>
<path d="M190.798 176.701L192.57 177.466V178.403L151.186 261.696H148.569L190.798 176.701Z" fill="#8E96E2"/>
<path d="M192.57 183.675L153.808 261.695H151.186L192.57 178.402V183.675Z" fill="#8D95E1"/>
<path d="M192.57 188.948L156.425 261.695H153.808L192.57 183.675V188.948Z" fill="#8B94E0"/>
<path d="M192.57 194.217L159.046 261.695H156.425L192.57 188.948V194.217Z" fill="#8A92E0"/>
<path d="M192.57 199.49L161.663 261.695H159.046L192.57 194.217V199.49Z" fill="#8891DF"/>
<path d="M192.57 204.763L164.285 261.695H161.663L192.57 199.49V204.763Z" fill="#8790DF"/>
<path d="M192.57 210.036L166.902 261.695H164.285L192.57 204.763V210.036Z" fill="#858EDE"/>
<path d="M192.57 215.305L169.523 261.695H166.902L192.57 210.036V215.305Z" fill="#838DDD"/>
<path d="M192.57 220.578L172.141 261.695H169.523L192.57 215.305V220.578Z" fill="#828CDD"/>
<path d="M192.57 225.851L174.762 261.695H172.141L192.57 220.578V225.851Z" fill="#808ADC"/>
<path d="M192.57 231.12L177.379 261.695H174.762L192.57 225.851V231.12Z" fill="#7E89DB"/>
<path d="M192.57 236.393L180.001 261.695H177.379L192.57 231.12V236.393Z" fill="#7D87DA"/>
<path d="M192.57 241.666L182.618 261.695H180.001L192.57 236.393V241.666Z" fill="#7B86DA"/>
<path d="M192.57 246.939L185.239 261.695H182.618L192.57 241.666V246.939Z" fill="#7984D9"/>
<path d="M185.239 261.695L192.57 246.939V261.695H185.239Z" fill="#7984D9"/>
<path d="M191.352 264.73H58.4372C57.7844 264.73 57.1583 264.488 56.6967 264.058C56.2351 263.628 55.9758 263.045 55.9758 262.436C55.9758 261.828 56.2351 261.244 56.6967 260.814C57.1583 260.384 57.7844 260.142 58.4372 260.142H191.352C192.004 260.142 192.63 260.384 193.092 260.814C193.554 261.244 193.813 261.828 193.813 262.436C193.813 263.045 193.554 263.628 193.092 264.058C192.63 264.488 192.004 264.73 191.352 264.73Z" fill="#5B72CF"/>
<path d="M112.35 75.8191C113.379 93.0259 114.594 110.764 112.35 118.691L118.794 127.925C119.513 128.954 120.496 129.799 121.654 130.385C122.812 130.97 124.108 131.276 125.426 131.276C126.743 131.276 128.039 130.97 129.197 130.385C130.355 129.799 131.338 128.954 132.057 127.925L138.494 118.695C135.991 112.24 137.558 93.0412 138.494 75.8229L112.35 75.8191Z" fill="#FFA6A6"/>
<path d="M110.069 95.06C111.472 99.1628 118.179 102.325 125.309 102.272C132.439 102.218 139.232 98.9105 140.742 94.7847C130.529 95.3581 120.292 95.4499 110.069 95.06Z" fill="#D6A685"/>
<path d="M141.562 119.807C143.334 124.778 140.947 130.82 126.888 133.799L139.987 146.337C140.627 146.945 141.414 147.402 142.282 147.669C143.15 147.937 144.074 148.007 144.977 147.875C145.881 147.742 146.737 147.411 147.475 146.908C148.213 146.405 148.812 145.745 149.221 144.983L159.366 127.604C159.504 127.367 159.588 127.107 159.614 126.838C159.639 126.57 159.606 126.3 159.515 126.044C159.424 125.788 159.278 125.552 159.086 125.351C158.894 125.15 158.66 124.988 158.398 124.874L143.355 118.408C143.133 118.297 142.881 118.251 142.63 118.274C142.38 118.298 142.143 118.392 141.95 118.542C141.757 118.693 141.617 118.894 141.548 119.119C141.479 119.345 141.484 119.585 141.562 119.807Z" fill="white"/>
<path d="M109.511 119.807C107.739 124.778 110.126 130.82 124.185 133.799L111.086 146.337C110.445 146.944 109.659 147.4 108.791 147.667C107.924 147.934 107 148.005 106.097 147.872C105.195 147.74 104.339 147.409 103.601 146.906C102.864 146.404 102.265 145.744 101.856 144.983L91.7067 127.604C91.5684 127.367 91.4838 127.106 91.4581 126.838C91.4324 126.569 91.4662 126.298 91.5573 126.042C91.6485 125.786 91.795 125.551 91.988 125.35C92.1809 125.149 92.4162 124.987 92.679 124.874L107.718 118.408C107.94 118.297 108.192 118.251 108.442 118.274C108.693 118.298 108.93 118.392 109.122 118.542C109.315 118.693 109.455 118.894 109.525 119.119C109.594 119.345 109.589 119.585 109.511 119.807Z" fill="white"/>
<path d="M122.65 107.606C122.65 107.606 135.897 105.583 140.323 101.128C140.323 101.128 137.013 107.105 138.494 118.691C138.494 118.691 135.733 113.139 122.65 107.606Z" fill="#D96868"/>
<path d="M165.741 53.821L158.505 82.457C156.859 89.0188 153.016 94.9221 147.531 99.312C143.158 102.803 137.923 106.417 133.874 107.522C131.149 108.256 128.326 108.623 125.489 108.611C122.557 108.622 119.644 108.17 116.875 107.273C113.519 106.176 108.297 102.62 103.948 99.3656C99.0424 95.6865 95.6229 90.5632 94.2503 84.8354L86.1318 50.98C86.1318 50.98 88.6917 -4.16982 125.514 3.91357C178.655 15.5721 165.741 53.821 165.741 53.821Z" fill="#FFA6A6"/>
<path d="M126.326 87.1981C128.049 87.114 129.719 86.0512 130.429 86.0512C131.138 86.0512 133.46 89.0294 140.303 89.0141C129.062 92.887 122.556 92.3173 111.398 89.5685C116.87 89.5073 118.979 87.3166 122.511 86.0817C123.245 85.8141 124.423 87.2937 126.326 87.1981Z" fill="#DB4C9B"/>
<path d="M137.382 89.2058C135.864 90.0623 135.154 90.1426 133.489 90.3797C129.05 91.0183 125.206 90.6933 120.296 90.4638C118.401 90.3721 117.514 90.4218 115.623 89.5614C116.534 92.3795 117.453 94.0849 120.259 95.6794C122.201 96.6826 124.363 97.2593 126.581 97.3657C129.358 97.4804 131.959 96.1956 133.829 94.4405C135.7 92.6854 136.151 91.37 137.382 89.2058Z" fill="#DB4C9B"/>
<path d="M155.424 28.5612C157.737 33.3332 152.445 37.3558 154.759 42.1354C162.508 42.5637 165.971 45.2594 173.716 45.6877C170.697 40.0362 166.303 37.3405 164.478 31.2569C162.652 25.1733 154.493 16.5202 148.688 13.2662C143.876 10.5666 150.817 6.80791 145.205 6.76585C124.324 6.54789 137.644 -8.81589 92.7488 9.44246C87.7399 24.6074 82.5792 41.126 77.5703 56.2909C86.8579 57.7325 80.2983 64.0263 86.8579 57.7325C104.088 41.2024 112.354 20.9978 112.354 20.9978C112.354 20.9978 114.979 27.479 131.589 40.8354C142.001 49.2094 169.084 62.0533 169.084 62.0533L164.482 51.7636C164.482 51.7636 155.83 33.3294 155.424 28.5612Z" fill="#373585"/>
<path d="M166.176 129.718C166.176 129.718 159.202 158.014 187.122 147.227C240.452 126.637 177.527 56.8533 167.218 25.6324C164.346 16.8914 161.844 8.09676 152.991 4.15449C144.548 0.395749 131.495 -1.58112 115.631 1.56199C165.187 25.6018 165.704 90.0433 166.176 129.718Z" fill="#373585"/>
<path d="M166.287 57.9349L125.736 59.8694L84.2326 59.0589L83.7075 55.4346L125.736 57.1665L166.287 55.469V57.9349Z" fill="#32315E"/>
<path d="M157.175 57.6524C149.11 57.579 141.049 58.0698 133.062 59.1207C132.049 59.2546 130.958 59.4343 130.256 60.1226C129.325 61.0441 129.436 62.4818 129.596 63.736C129.948 66.3744 130.99 68.6725 132.242 71.0585C134.486 75.3372 139.092 77.0656 144.2 76.9929C149.307 76.9203 153.635 75.1575 156.158 71.024C158.681 66.8906 159.259 61.9962 157.175 57.6524Z" fill="#FFD7D6"/>
<path d="M119.738 60.2566C111.738 60.1839 105.749 58.1497 97.8274 59.1897C96.8264 59.3236 95.7435 59.5033 95.0461 60.1877C94.1231 61.0978 94.2256 62.524 94.3938 63.7706C94.7425 66.386 95.1117 69.055 96.3547 71.4181C98.5782 75.6624 103.624 78.4193 108.69 78.3467C113.757 78.274 117.01 74.7371 119.524 70.638C122.039 66.539 121.805 64.5774 119.738 60.2566Z" fill="#FFD7D6"/>
<path d="M122.088 60.1303C114.167 58.7109 106.142 57.8482 98.0818 57.5492C97.0644 57.511 95.9568 57.5034 95.1323 58.0654C94.0369 58.8302 93.8646 60.2488 93.7908 61.5068C93.6267 64.1605 93.479 66.8601 94.2502 69.4296C95.6327 74.0181 100.104 77.5971 105.142 78.3772C110.179 79.1572 115.558 77.1956 118.844 73.5516C120.461 71.7007 121.596 69.5253 122.159 67.1965C122.722 64.8677 122.698 62.4489 122.088 60.1303ZM116.948 72.4198C115.589 73.9165 113.843 75.0657 111.875 75.7588C109.906 76.4519 107.781 76.6661 105.7 76.3812C101.565 75.7388 97.9054 72.7983 96.7568 69.0358C96.125 66.9365 96.2481 64.7111 96.3794 62.5354C96.4409 61.4992 96.5845 60.3215 97.4829 59.7097C98.1597 59.247 99.0663 59.2508 99.9032 59.2814C106.521 59.5295 113.11 60.2376 119.615 61.3998C120.114 63.3038 120.133 65.2897 119.67 67.2017C119.208 69.1138 118.276 70.8999 116.948 72.4198Z" fill="#32315E"/>
<path d="M129.161 61.3418H122.314C121.895 61.3408 121.494 61.1854 121.198 60.9096C120.902 60.6337 120.736 60.2599 120.735 59.8699C120.736 59.4798 120.902 59.106 121.198 58.8302C121.494 58.5544 121.895 58.399 122.314 58.3979H129.161C129.579 58.399 129.98 58.5544 130.276 58.8302C130.572 59.106 130.739 59.4798 130.74 59.8699C130.739 60.2599 130.572 60.6337 130.276 60.9096C129.98 61.1854 129.579 61.3408 129.161 61.3418Z" fill="#32315E"/>
<path d="M157.175 57.4193C149.109 57.3471 141.049 57.8392 133.062 58.8914C132.049 59.0214 130.958 59.2011 130.256 59.8932C129.325 60.8109 129.436 62.2525 129.596 63.5067C129.948 66.1412 130.322 68.8331 131.573 71.223C133.817 75.4979 138.904 78.2816 144.011 78.2089C149.118 78.1363 154.029 75.3067 156.564 71.1733C159.099 67.0398 159.259 61.7669 157.175 57.4193ZM154.472 70.3741C153.422 72.073 151.925 73.4946 150.122 74.5048C148.319 75.515 146.269 76.0805 144.167 76.148C139.974 76.2091 135.798 73.9264 133.956 70.4123C132.931 68.4546 132.623 66.2445 132.315 64.0802C132.18 63.0478 132.094 61.8663 132.861 61.113C133.435 60.5471 134.33 60.398 135.162 60.2909C141.719 59.4279 148.335 59.024 154.956 59.0826C155.818 60.8714 156.223 62.8221 156.139 64.7814C156.055 66.7407 155.484 68.6551 154.472 70.3741Z" fill="#32315E"/>
<path d="M99.1032 69.5786C98.7492 69.3055 98.5254 68.913 98.4809 68.4867C98.4363 68.0605 98.5745 67.6351 98.8653 67.3034L103.378 62.2217C103.671 61.8923 104.093 61.6845 104.55 61.6436C105.007 61.6028 105.463 61.7322 105.819 62.0037C105.997 62.1394 106.144 62.3066 106.252 62.4957C106.36 62.6848 106.427 62.892 106.449 63.1054C106.471 63.3187 106.447 63.534 106.379 63.7387C106.311 63.9434 106.2 64.1335 106.052 64.298L101.54 69.3797C101.244 69.7052 100.822 69.9086 100.365 69.9458C99.9093 69.9831 99.4557 69.8511 99.1032 69.5786Z" fill="white"/>
<path d="M107.882 65.8698C107.755 65.7715 107.591 65.7243 107.426 65.7386C107.262 65.7529 107.11 65.8276 107.004 65.9463L105.831 67.2729L104.215 69.1004C104.163 69.1593 104.124 69.2273 104.1 69.3003C104.076 69.3734 104.068 69.4501 104.076 69.5261C104.084 69.6021 104.108 69.6758 104.147 69.7432C104.185 69.8105 104.238 69.8701 104.301 69.9185C104.429 70.0159 104.592 70.0624 104.757 70.0481C104.921 70.0338 105.073 69.9598 105.179 69.842L106.352 68.5116L107.968 66.6841C108.02 66.6255 108.059 66.5578 108.083 66.4851C108.107 66.4123 108.115 66.3359 108.107 66.2603C108.099 66.1846 108.075 66.1112 108.036 66.0442C107.998 65.9771 107.945 65.9179 107.882 65.8698Z" fill="white"/>
<path d="M145.254 65.8698C145.127 65.7715 144.963 65.7243 144.798 65.7386C144.634 65.7529 144.482 65.8276 144.376 65.9463L143.203 67.2729L141.587 69.1004C141.535 69.1593 141.496 69.2273 141.472 69.3003C141.448 69.3734 141.44 69.4501 141.448 69.5261C141.456 69.6021 141.48 69.6758 141.518 69.7432C141.557 69.8105 141.609 69.8701 141.673 69.9185C141.8 70.0159 141.964 70.0624 142.129 70.0481C142.293 70.0338 142.444 69.9598 142.551 69.842L143.724 68.5116L145.34 66.6841C145.392 66.6255 145.431 66.5578 145.455 66.4851C145.479 66.4123 145.487 66.3359 145.479 66.2603C145.471 66.1846 145.447 66.1112 145.408 66.0442C145.37 65.9771 145.317 65.9179 145.254 65.8698Z" fill="white"/>
<path d="M137.193 69.5786C136.84 69.305 136.617 68.9122 136.573 68.4859C136.529 68.0597 136.668 67.6346 136.959 67.3034L141.451 62.2217C141.745 61.8923 142.166 61.6845 142.623 61.6436C143.081 61.6028 143.537 61.7322 143.892 62.0037C144.07 62.1394 144.217 62.3066 144.326 62.4957C144.434 62.6848 144.501 62.892 144.523 63.1054C144.544 63.3187 144.52 63.534 144.452 63.7387C144.384 63.9434 144.273 64.1335 144.126 64.298L139.634 69.3797C139.338 69.7063 138.915 69.9105 138.457 69.9477C138 69.985 137.546 69.8523 137.193 69.5786Z" fill="white"/>
<path d="M125.871 145.181C127.516 145.181 128.849 143.938 128.849 142.405C128.849 140.873 127.516 139.63 125.871 139.63C124.226 139.63 122.893 140.873 122.893 142.405C122.893 143.938 124.226 145.181 125.871 145.181Z" fill="white"/>
<path d="M127.007 154.85C128.526 154.263 129.248 152.639 128.618 151.223C127.989 149.807 126.247 149.134 124.727 149.721C123.208 150.308 122.486 151.931 123.115 153.348C123.745 154.764 125.487 155.436 127.007 154.85Z" fill="white"/>
<g opacity="0.3">
<path opacity="0.3" d="M99.579 84.8814C102.438 84.8814 104.756 83.3852 104.756 81.5395C104.756 79.6937 102.438 78.1975 99.579 78.1975C96.7197 78.1975 94.4019 79.6937 94.4019 81.5395C94.4019 83.3852 96.7197 84.8814 99.579 84.8814Z" fill="#E0608D"/>
</g>
<g opacity="0.3">
<path opacity="0.3" d="M151.703 84.8814C154.562 84.8814 156.88 83.3852 156.88 81.5395C156.88 79.6937 154.562 78.1975 151.703 78.1975C148.844 78.1975 146.526 79.6937 146.526 81.5395C146.526 83.3852 148.844 84.8814 151.703 84.8814Z" fill="#E0608D"/>
</g>
<path d="M138.27 106.357C142.763 105.582 146.046 103.138 145.601 100.897C145.156 98.6567 141.153 97.4684 136.659 98.2432C132.166 99.0179 128.884 101.462 129.328 103.703C129.773 105.944 133.776 107.132 138.27 106.357Z" fill="#6966D1"/>
<path d="M144.651 99.1822C144.651 99.1822 156.88 94.2458 166.287 76.148C168.604 71.6896 169.568 79.3638 169.568 79.3638C169.568 79.3638 165.72 94.2764 144.204 103.943L144.651 99.1822Z" fill="#6966D1"/>
<path d="M167.739 80.6982C166.074 80.6941 164.479 80.0762 163.301 78.9793C162.123 77.8824 161.46 76.3958 161.454 74.844V57.1478C161.458 55.5954 162.122 54.1077 163.3 53.01C164.477 51.9123 166.073 51.2938 167.739 51.2898C169.404 51.2948 170.999 51.9136 172.177 53.0111C173.354 54.1086 174.018 55.5957 174.023 57.1478V74.844C174.018 76.3958 173.354 77.8824 172.177 78.9793C170.999 80.0762 169.404 80.6941 167.739 80.6982Z" fill="#6966D1"/>
<path d="M173.675 73.544C173.352 73.544 173.042 73.4258 172.812 73.2148C172.582 73.0038 172.45 72.7169 172.444 72.416V62.1225C172.444 61.8243 172.571 61.5384 172.798 61.3275C173.024 61.1167 173.331 60.9983 173.65 60.9983C173.97 60.9983 174.277 61.1167 174.503 61.3275C174.729 61.5384 174.856 61.8243 174.856 62.1225V72.416C174.851 72.7091 174.726 72.9893 174.507 73.1991C174.287 73.4089 173.989 73.5323 173.675 73.544Z" fill="white"/>
<path d="M167.969 59.6563C167.494 59.6548 167.038 59.4833 166.695 59.1772C166.352 58.8712 166.149 58.454 166.126 58.012L165.113 37.2606C164.829 31.2566 162.066 25.5873 157.403 21.4367C152.74 17.2862 146.537 14.9755 140.089 14.9873H110.385C103.751 14.9974 97.3925 17.4581 92.7019 21.8302C88.0113 26.2022 85.3714 32.1291 85.3605 38.3121C85.3605 38.7685 85.166 39.2062 84.8198 39.5288C84.4736 39.8515 84.0041 40.0328 83.5145 40.0328C83.0249 40.0328 82.5554 39.8515 82.2092 39.5288C81.863 39.2062 81.6685 38.7685 81.6685 38.3121C81.6804 31.2167 84.7097 24.4151 90.0924 19.3979C95.4751 14.3807 102.772 11.5571 110.385 11.546H140.102C147.501 11.5314 154.619 14.1824 159.971 18.9452C165.322 23.7079 168.492 30.2139 168.818 37.1038L169.831 57.8553C169.853 58.3111 169.68 58.7565 169.35 59.0935C169.02 59.4306 168.56 59.6316 168.071 59.6524L167.969 59.6563Z" fill="#6966D1"/>
<path d="M82.3495 183.131C81.8121 183.235 81.4224 183.319 81.0327 183.384C80.643 183.449 80.2328 183.498 80.1713 183.506L78.7108 185.257C77.5786 184.29 78.7108 182.287 76.3684 182.615L76.0238 180.513L74.4116 179.488L74.9449 178.823L76.393 179.874L78.7314 179.664C78.9488 180.513 79.1416 181.327 79.3262 181.996C80.2246 182.749 81.9557 181.006 82.3495 183.131Z" fill="#C7C9F0"/>
<path d="M71.6219 208.59L70.4527 209.737C70.3322 209.302 70.1546 208.882 69.9236 208.487C69.6419 208.229 69.3125 208.02 68.9513 207.871C68.5206 208.636 67.8355 208.613 67.0069 208.739C66.1044 208.873 65.3332 209.71 64.4717 210.188C64.2789 210.295 63.7619 210.265 63.7004 210.157C63.2809 209.369 62.9138 208.557 62.601 207.726C62.5559 207.604 62.921 207.344 63.0974 207.16C63.4106 207.431 63.7027 207.722 63.9712 208.032C64.1391 208.307 64.2766 208.598 64.3814 208.9C64.6797 208.741 64.9895 208.602 65.3086 208.483C65.8008 208.33 66.3136 208.234 67.0479 208.062L68.6601 204.239C69.1442 205.038 69.3082 205.489 69.6282 205.811C70.4486 206.655 69.8908 208.368 71.6425 208.632L71.6219 208.59Z" fill="#C7C9F0"/>
<path d="M69.7309 196.308L67.811 195.601C68.1597 194.783 68.4839 194.011 68.8818 193.074C69.7351 193.387 70.5227 193.697 71.3432 193.969C71.9995 194.19 72.7256 194.756 73.2137 193.689C73.2671 193.567 73.8497 193.563 74.1245 193.655C74.3009 193.72 74.5347 194.194 74.4485 194.259C74.2001 194.488 73.9042 194.668 73.5789 194.787C72.4097 195.265 71.2323 195.731 69.7309 196.308Z" fill="#C7C9F0"/>
<path d="M88.6424 181.438L87.5348 182.348C86.2344 180.754 84.573 180.436 82.6367 180.941C82.407 180.998 81.8449 180.609 81.7916 180.36C81.7383 180.111 82.2018 179.546 82.3618 179.565C83.4735 179.679 84.5689 179.92 85.9226 180.165L87.7564 178.659L88.745 179.576L88.9501 180.341L88.6424 181.438Z" fill="#C7C9F0"/>
<path d="M67.8478 216.275L67.1708 215.832C67.2879 215.47 67.3488 215.094 67.3514 214.715C67.2155 214.051 67.0429 213.394 66.8345 212.747L66.293 212.812C66.4037 212.07 66.5144 211.332 66.6539 210.365C67.1175 210.518 67.6919 210.537 67.8478 210.781C69.2097 212.968 69.1891 212.98 68.6025 216.027L67.8478 216.275Z" fill="#C7C9F0"/>
<path d="M74.6209 188.023C74.7558 187.566 74.9529 187.128 75.2075 186.719C75.5226 186.441 75.8861 186.215 76.2823 186.05C76.352 186.432 76.5489 186.814 76.4628 187.143C76.2536 187.927 75.4987 188.73 76.873 189.273C76.9715 189.311 76.9345 189.865 76.8073 190.106C76.7206 190.19 76.6116 190.252 76.4913 190.284C76.371 190.316 76.2437 190.318 76.1223 190.29C75.8618 190.081 75.6556 189.819 75.5192 189.525C75.3632 189.197 75.2263 188.861 75.109 188.52C74.8422 188.648 74.5683 188.762 74.2885 188.864C73.8886 188.994 73.4766 189.09 73.0579 189.15C72.9454 188.957 72.8743 188.746 72.8486 188.527C73.2355 188.348 73.6375 188.198 74.0506 188.08C74.2386 188.046 74.4294 188.027 74.6209 188.023Z" fill="#C7C9F0"/>
<path d="M64.0699 192.443C64.4998 192.695 64.8939 192.997 65.2431 193.341C65.439 193.7 65.5666 194.088 65.6205 194.488C65.2103 194.446 64.7591 194.511 64.4473 194.335C63.7007 193.926 63.0894 193.024 62.1418 194.087C62.072 194.167 61.5142 193.972 61.3009 193.788C61.2402 193.687 61.2083 193.573 61.2083 193.458C61.2083 193.342 61.2402 193.228 61.3009 193.127C61.5902 192.953 61.9186 192.843 62.2608 192.806C62.6443 192.756 63.0305 192.725 63.4176 192.714C63.3766 192.435 63.3069 192.16 63.2946 191.884C63.2759 191.488 63.2965 191.092 63.3561 190.699C63.5878 190.657 63.826 190.657 64.0576 190.699C64.1312 191.096 64.1696 191.497 64.1725 191.9C64.1559 192.083 64.1216 192.265 64.0699 192.443Z" fill="#C7C9F0"/>
<path d="M66.2276 185.835C64.4882 184.329 66.3014 182.968 65.965 181.503C66.5577 181.536 67.1456 181.622 67.7208 181.76C68.1277 181.969 68.5041 182.226 68.8407 182.524C68.4534 182.71 68.1014 182.955 67.7987 183.247C67.2859 183.946 66.9004 184.726 66.2276 185.835Z" fill="#C7C9F0"/>
<path d="M70.6906 188.891L73.152 189.804C72.8033 190.626 72.4792 191.399 72.151 192.167C69.6445 191.597 69.3615 191.024 70.6906 188.891Z" fill="#C7C9F0"/>
<path d="M64.5906 203.727C64.2378 203.486 63.8153 203.321 63.6389 203.027C63.6036 202.878 63.6041 202.723 63.6403 202.573C63.6764 202.424 63.7474 202.284 63.8481 202.163C63.9547 202.095 64.0771 202.05 64.2054 202.035C64.3338 202.019 64.4644 202.031 64.5865 202.071C64.8142 202.192 64.9821 202.391 65.0541 202.626C65.1973 203.193 65.3964 203.747 65.649 204.281C65.091 206.498 65.0911 206.498 63.7579 206.017C64.0286 205.317 64.2666 204.61 64.5906 203.727Z" fill="#C7C9F0"/>
<path d="M68.5412 201.467L70.6949 203.188C70.1821 203.276 69.6283 203.52 69.1689 203.417C68.332 203.222 67.1956 202.997 68.5412 201.467Z" fill="#C7C9F0"/>
<path d="M67.7495 221.897L69.9032 223.622C69.3905 223.71 68.8367 223.954 68.3772 223.847C67.5321 223.645 66.3958 223.408 67.7495 221.897Z" fill="#C7C9F0"/>
<path d="M113.609 178.953L115.763 180.677C115.25 180.765 114.696 181.01 114.237 180.903C113.387 180.708 112.251 180.459 113.609 178.953Z" fill="#C7C9F0"/>
<path d="M67.249 228.887C67.1998 228.007 67.1464 227.124 67.0972 226.245C67.5074 226.532 68.0899 226.734 68.3279 227.117C68.7586 227.824 69.3617 228.757 67.249 228.887Z" fill="#C7C9F0"/>
<path d="M121.026 179.251L123.18 180.975C122.667 181.06 122.113 181.308 121.654 181.201C120.809 181.002 119.672 180.758 121.026 179.251Z" fill="#C7C9F0"/>
<path d="M69.0828 198.79C69.0828 198.951 69.1772 199.253 69.0828 199.452C68.9101 199.747 68.6586 199.996 68.3526 200.174C67.9535 200.427 67.5088 200.609 67.0399 200.714C66.6392 200.724 66.2392 200.676 65.8542 200.572C65.965 200.247 66.0758 199.922 66.1907 199.597C66.3685 199.674 66.5619 199.714 66.7578 199.715C66.9538 199.717 67.1478 199.679 67.3267 199.604C67.5056 199.529 67.6652 199.42 67.7947 199.283C67.9243 199.146 68.0208 198.984 68.0778 198.81C68.0983 198.737 68.4757 198.79 69.0828 198.79Z" fill="#C7C9F0"/>
<path d="M102.767 180.574C102.767 180.739 102.861 181.041 102.767 181.239C102.593 181.534 102.341 181.783 102.036 181.962C101.637 182.213 101.192 182.394 100.724 182.497C100.323 182.509 99.9233 182.462 99.5381 182.36C99.6488 182.035 99.7595 181.706 99.8744 181.381C100.756 181.652 101.376 181.381 101.761 180.597C101.77 180.517 102.18 180.582 102.767 180.574Z" fill="#C7C9F0"/>
<path d="M97.5689 181.389C97.5689 181.549 97.6673 181.851 97.5689 182.054C97.3951 182.346 97.1455 182.593 96.8428 182.773C96.4428 183.026 95.9965 183.208 95.526 183.312C95.1252 183.324 94.7249 183.276 94.3403 183.17C94.4511 182.845 94.566 182.52 94.6767 182.195C95.5587 182.463 96.1782 182.195 96.568 181.408C96.5885 181.331 96.9617 181.396 97.5689 181.389Z" fill="#C7C9F0"/>
<path d="M72.5161 185.025C72.5161 186.42 71.7409 186.195 70.8383 185.851C69.9358 185.506 69.1482 185.231 70.2025 184.188C70.5635 184.291 70.9491 184.371 71.3142 184.505C71.6793 184.639 72.1264 184.86 72.5161 185.025Z" fill="#C7C9F0"/>
<path d="M92.8225 182.222C92.8225 183.617 92.0472 183.396 91.1447 183.048C90.2422 182.7 89.4546 182.428 90.5089 181.388C90.8699 181.488 91.2555 181.568 91.6206 181.702C91.9857 181.836 92.4328 182.054 92.8225 182.222Z" fill="#C7C9F0"/>
<path d="M69.3286 218.991C69.3286 220.387 68.5534 220.161 67.6508 219.817C66.7483 219.473 65.9607 219.198 67.015 218.154C67.376 218.253 67.7616 218.337 68.1267 218.471C68.4918 218.605 68.9512 218.819 69.3286 218.991Z" fill="#C7C9F0"/>
<path d="M65.8132 186.692C67.2982 186.857 66.9741 187.541 66.5065 188.34C66.0388 189.139 65.6573 189.839 64.6646 188.745C64.8122 188.42 64.9394 188.072 65.124 187.751C65.3086 187.43 65.5876 187.032 65.8132 186.692Z" fill="#C7C9F0"/>
<path d="M118.109 178.582C119.598 178.746 119.274 179.427 118.807 180.23C118.339 181.033 117.958 181.728 116.961 180.635C117.108 180.31 117.24 179.962 117.42 179.641C117.601 179.32 117.884 178.907 118.109 178.582Z" fill="#C7C9F0"/>
<path d="M107.562 179.985C108.137 181.27 107.341 181.343 106.364 181.354C105.388 181.365 104.547 181.404 105.076 180.058C105.454 180.02 105.843 179.955 106.233 179.943C106.623 179.932 107.131 179.97 107.562 179.985Z" fill="#C7C9F0"/>
<path d="M64.4101 198.247C65.6408 199.012 65.0337 199.49 64.2296 200.006C63.4256 200.522 62.7487 200.989 62.3877 199.593C62.679 199.367 62.962 199.111 63.282 198.901C63.6019 198.691 64.0286 198.458 64.4101 198.247Z" fill="#C7C9F0"/>
<path d="M71.5359 200.254C71.9461 199.26 72.2333 198.61 72.5902 197.762C73.0004 197.93 73.6814 198.144 73.665 198.236C73.5141 198.962 73.2602 199.667 72.9101 200.331C72.8404 200.465 72.1471 200.319 71.5359 200.254Z" fill="#C7C9F0"/>
<path d="M94.3241 181.132L92.0801 179.458C92.3672 179.16 92.8022 178.601 92.8801 178.64C93.582 178.986 94.2305 179.42 94.8082 179.928C94.923 180.031 94.5497 180.597 94.3241 181.132Z" fill="#C7C9F0"/>
<path d="M66.4039 224.199C66.4326 225.269 66.449 225.973 66.4695 226.875C66.0592 226.875 65.3045 226.913 65.2881 226.829C65.1236 226.103 65.0628 225.36 65.1075 224.62C65.1198 224.478 65.8254 224.382 66.4039 224.199Z" fill="#C7C9F0"/>
<path d="M67.1381 232.439C67.1668 233.51 67.1832 234.213 67.2037 235.116C66.7935 235.116 66.0428 235.154 66.0223 235.07C65.8581 234.344 65.7973 233.601 65.8417 232.86C65.854 232.711 66.5597 232.615 67.1381 232.439Z" fill="#C7C9F0"/>
<path d="M62.7979 217.025C63.2081 216.028 63.4953 215.378 63.8522 214.533C64.2419 214.697 64.9433 214.915 64.9269 215.003C64.7761 215.731 64.5223 216.436 64.1722 217.102C64.1188 217.232 63.4255 217.067 62.7979 217.025Z" fill="#C7C9F0"/>
<path d="M63.8767 222.761C64.2869 221.763 64.5741 221.113 64.9351 220.269C65.3207 220.433 66.0264 220.651 66.0059 220.739C65.8564 221.466 65.6039 222.172 65.2551 222.838C65.1854 222.968 64.4921 222.803 63.8767 222.761Z" fill="#C7C9F0"/>
<path d="M109.125 181.132L111.997 180.96C111.997 181.343 112.083 182.05 111.997 182.069C111.226 182.251 110.433 182.338 109.638 182.329C109.482 182.321 109.347 181.668 109.125 181.132Z" fill="#C7C9F0"/>
<path d="M72.0035 181.534C70.6744 181.534 70.736 180.926 71.1421 180.092C71.4867 179.385 71.6425 178.379 72.9348 179.328C72.6435 180.054 72.3153 180.796 72.0035 181.534Z" fill="#C7C9F0"/>
<path d="M125.563 180.394C125.181 179.209 125.842 179.09 126.814 179.247C127.635 179.362 128.722 179.228 128.09 180.646L125.563 180.394Z" fill="#C7C9F0"/>
<path d="M66.2109 231.372C64.9802 231.823 64.7914 231.219 64.8571 230.309C64.9104 229.545 64.6765 228.539 66.2477 229.006C66.2354 229.793 66.2232 230.577 66.2109 231.372Z" fill="#C7C9F0"/>
<path d="M110.606 180.486C109.281 180.486 109.338 179.874 109.749 179.045C110.093 178.333 110.249 177.328 111.541 178.28L110.606 180.486Z" fill="#C7C9F0"/>
<path d="M98.5208 180.631C97.8931 179.542 98.5207 179.301 99.493 179.251C100.313 179.209 101.355 178.869 101.048 180.398L98.5208 180.631Z" fill="#C7C9F0"/>
<g opacity="0.3">
<path opacity="0.3" d="M126.182 81.6844C123.906 81.6844 122.199 80.1551 122.125 80.0786C122.009 79.9717 121.943 79.826 121.942 79.6736C121.941 79.5213 122.004 79.3747 122.119 79.2662C122.234 79.1577 122.39 79.0962 122.554 79.0951C122.717 79.094 122.874 79.1535 122.991 79.2605C123.122 79.3828 126.137 82.0437 129.046 79.2605C129.16 79.1515 129.316 79.0892 129.48 79.0874C129.643 79.0856 129.801 79.1445 129.918 79.2509C130.035 79.3574 130.101 79.5028 130.103 79.6552C130.105 79.8075 130.042 79.9543 129.928 80.0633C129.461 80.5502 128.893 80.944 128.259 81.2213C127.624 81.4985 126.936 81.6534 126.236 81.6767L126.182 81.6844Z" fill="#E0608D"/>
</g>
<path d="M131.026 216.195C131.026 212.987 129.075 210.326 125.297 210.326C122.695 210.326 120.336 211.655 118.505 213.836L115.726 211.233C118.206 208.335 121.576 206.212 125.887 206.212C131.851 206.212 135.75 209.9 135.75 215.893C135.75 223.815 126.243 227.023 127.184 235.495H122.934C121.633 226.054 131.026 222.606 131.026 216.195ZM121.693 244.448C121.693 242.151 123.228 240.578 125.176 240.578C127.123 240.578 128.719 242.151 128.719 244.448C128.735 244.935 128.655 245.42 128.484 245.874C128.313 246.328 128.054 246.743 127.724 247.093C127.393 247.443 126.997 247.721 126.56 247.911C126.122 248.1 125.651 248.198 125.176 248.198C123.228 248.198 121.693 246.625 121.693 244.448Z" fill="white"/>
</svg>
