<svg width="809" height="430" viewBox="0 0 809 430" fill="none" xmlns="http://www.w3.org/2000/svg">
<rect width="809" height="430" rx="20" fill="url(#paint0_linear_304_2)"/>
<path d="M703 347.268V30.0497C703 30.0223 702.978 30 702.95 30C702.923 30 702.901 30.0223 702.901 30.0497V347.268C702.901 347.295 702.923 347.318 702.95 347.318C702.978 347.318 703 347.295 703 347.268Z" fill="url(#paint1_linear_304_2)"/>
<path style="mix-blend-mode:multiply" d="M634.169 301.002C632.092 305.695 594.7 299.452 550.651 287.056C506.602 274.66 472.576 260.807 474.646 256.117C476.715 251.428 534.413 244.059 578.463 256.449C622.512 268.839 636.247 296.309 634.169 301.002Z" fill="url(#paint2_linear_304_2)" fill-opacity="0.25"/>
<path d="M576.879 282.565C618.976 276.034 642.044 225.415 628.402 169.505C614.761 113.594 569.576 73.5647 527.479 80.0959C485.382 86.6271 462.314 137.246 475.955 193.156C489.597 249.067 534.782 289.096 576.879 282.565Z" fill="url(#paint3_linear_304_2)"/>
<path d="M617.391 182.408C626.249 239.934 597.478 286.569 553.124 286.569C508.771 286.569 465.645 239.934 456.779 182.408C447.913 124.881 476.693 78.2466 521.045 78.2466C565.397 78.2466 608.533 124.878 617.391 182.408Z" fill="white"/>
<path d="M602.172 182.408C609.35 229.031 586.031 266.827 550.088 266.827C514.145 266.827 479.186 229.031 472.008 182.408C464.829 135.784 488.148 97.9885 524.091 97.9885C560.034 97.9885 594.991 135.784 602.172 182.408Z" fill="#F04A3E"/>
<path d="M586.951 182.408C592.45 218.128 574.587 247.085 547.048 247.085C519.509 247.085 492.73 218.128 487.228 182.408C481.727 146.687 499.592 117.738 527.131 117.738C554.67 117.738 581.451 146.687 586.951 182.408Z" fill="white"/>
<path d="M573.268 182.408C577.257 208.325 564.294 229.334 544.314 229.334C524.334 229.334 504.903 208.333 500.912 182.408C496.92 156.483 509.883 135.481 529.863 135.481C549.843 135.481 569.277 156.491 573.268 182.408Z" fill="#F04A3E"/>
<path d="M558.594 183.545C561.123 199.974 552.908 213.292 540.241 213.292C527.575 213.292 515.259 199.974 512.73 183.545C510.201 167.116 518.417 153.802 531.081 153.802C543.745 153.802 556.063 167.118 558.594 183.545Z" fill="white"/>
<path d="M545.211 183.545C546.264 190.387 542.844 195.934 537.569 195.934C532.294 195.934 527.165 190.38 526.112 183.545C525.06 176.71 528.48 171.159 533.755 171.159C539.029 171.159 544.157 176.706 545.211 183.545Z" fill="#F04A3E"/>
<path style="mix-blend-mode:multiply" d="M530.87 188.645L531.922 190.56L570.327 262.287C575.729 272.376 571.329 284.73 559.952 285.967C538.456 288.305 504.012 283.07 477.288 236.52" fill="url(#paint4_linear_304_2)" fill-opacity="0.25"/>
<path d="M473.992 195.692C472.682 195.015 471.167 195.444 471.017 196.911C470.855 198.495 472.392 200.07 473.878 199.499L476.799 198.378C477.676 198.041 477.704 197.617 476.871 197.184C476.104 196.785 475.071 196.25 473.992 195.692Z" fill="url(#paint5_linear_304_2)"/>
<path d="M473.992 195.692C472.682 195.015 471.167 195.444 471.017 196.911C470.855 198.495 472.392 200.07 473.878 199.499L476.799 198.378C477.676 198.041 477.704 197.617 476.871 197.184C476.104 196.785 475.071 196.25 473.992 195.692Z" fill="url(#paint6_linear_304_2)"/>
<path d="M500.806 217.123C501.596 214.353 498.671 211.993 496.131 213.352L274.65 331.795C267.082 335.842 269.958 347.318 278.54 347.318C280.008 347.318 281.45 346.926 282.716 346.183L499.32 219.042C500.044 218.617 500.576 217.93 500.806 217.123Z" fill="url(#paint7_linear_304_2)"/>
<path d="M500.806 217.123C501.596 214.353 498.671 211.993 496.131 213.352L274.65 331.795C267.082 335.842 269.958 347.318 278.54 347.318C280.008 347.318 281.45 346.926 282.716 346.183L499.32 219.042C500.044 218.617 500.576 217.93 500.806 217.123Z" fill="url(#paint8_linear_304_2)"/>
<path d="M503.918 209.592C503.696 209.459 503.42 209.453 503.192 209.575C503.016 209.669 502.886 209.831 502.831 210.022L500.482 218.26C500.47 218.303 500.517 218.339 500.555 218.316C500.57 218.307 500.589 218.306 500.604 218.315L505.253 220.874C510.001 223.487 515.969 221.477 518.17 216.524C522.661 206.419 529.34 191.429 530.068 189.987C528.145 193.42 523.393 202.102 519.839 208.608C517.478 212.929 512 214.424 507.774 211.898L503.918 209.592Z" fill="url(#paint9_linear_304_2)"/>
<path d="M503.918 209.592C503.696 209.459 503.42 209.453 503.192 209.575C503.016 209.669 502.886 209.831 502.831 210.022L500.482 218.26C500.47 218.303 500.517 218.339 500.555 218.316C500.57 218.307 500.589 218.306 500.604 218.315L505.253 220.874C510.001 223.487 515.969 221.477 518.17 216.524C522.661 206.419 529.34 191.429 530.068 189.987C528.145 193.42 523.393 202.102 519.839 208.608C517.478 212.929 512 214.424 507.774 211.898L503.918 209.592Z" fill="url(#paint10_linear_304_2)"/>
<path d="M530.129 189.876C530.106 189.911 530.086 189.948 530.068 189.986L530.129 189.876Z" fill="white"/>
<path d="M108.632 347.318C108.954 347.318 109.274 347.258 109.575 347.143L470.336 208.64C473.467 207.437 473.647 205.317 470.308 205.001C468.334 205.001 468.504 201.562 466.662 202.27L108.503 339.776C106.995 340.354 106 341.802 106 343.417V344.686C106 346.139 107.178 347.318 108.632 347.318Z" fill="white"/>
<path d="M471.502 193.471C482.141 194.187 496.198 193.365 507.881 192.326C517.383 191.48 525.315 190.494 528.558 190.077C528.757 190.052 530.759 188.612 530.926 188.5C531.011 188.446 468.358 192.882 468.44 192.89C468.507 192.897 469.362 193.321 470.54 193.92C470.921 194.114 471.075 193.44 471.502 193.471Z" fill="white"/>
<path d="M470.308 205.001C473.655 205.317 473.474 207.435 470.336 208.64L145.073 333.515C137.683 336.352 139.715 347.318 147.631 347.318C148.588 347.318 149.513 347.134 150.394 346.762C197.997 326.612 277.177 293.394 286.403 290.489C286.99 290.304 287.619 290.321 288.233 290.366C290.893 290.557 291.62 294.13 289.23 295.315C267.033 306.317 209.594 334.831 210.541 334.831C211.536 334.831 286.594 303.613 309.439 294.102C313.623 292.36 318.128 293.813 322.657 293.661C323.286 293.639 279.534 317.312 241.917 337.8C237.298 340.316 239.091 347.318 244.35 347.318C245.186 347.318 246.009 347.111 246.745 346.717L499.319 211.647C501.619 210.417 503.321 208.306 504.037 205.799C505.89 199.303 500.653 192.975 493.908 193.341C486.046 193.767 478.114 193.916 471.502 193.471C470.981 193.471 471.632 194.474 472.096 194.712C473.371 195.366 474.763 196.086 475.892 196.672C477.359 197.434 477.312 198.181 475.769 198.773L474.651 199.202C472.206 200.141 467.689 205.001 470.308 205.001Z" fill="white"/>
<path d="M503.078 209.157C503.018 209.369 503.241 209.549 503.435 209.445C503.512 209.403 503.606 209.406 503.681 209.451L507.774 211.898C512 214.424 517.479 212.929 519.839 208.608C523.393 202.103 528.145 193.42 530.068 189.987C530.104 189.91 530.09 189.88 530.006 189.89C528.979 190.021 521.645 191.007 511.944 191.948C509.499 192.185 507.436 193.885 506.762 196.247L503.078 209.157Z" fill="white"/>
<path d="M322.657 293.661C318.127 293.813 313.622 292.36 309.439 294.101C286.592 303.613 211.528 334.831 210.541 334.831C209.602 334.831 267.041 306.317 289.238 295.315C291.628 294.13 290.901 290.557 288.241 290.366C287.627 290.321 286.998 290.304 286.411 290.488C280.819 292.249 249.531 305.145 215.151 319.518C200.523 325.633 204.905 347.318 220.76 347.318C223.198 347.318 225.592 346.708 227.732 345.539C267.461 323.838 323.367 293.636 322.657 293.661Z" fill="white"/>
<path d="M322.657 293.661C318.127 293.813 313.622 292.36 309.439 294.101C286.592 303.613 211.528 334.831 210.541 334.831C209.602 334.831 267.041 306.317 289.238 295.315C291.628 294.13 290.901 290.557 288.241 290.366C287.627 290.321 286.998 290.304 286.411 290.488C280.819 292.249 249.531 305.145 215.151 319.518C200.523 325.633 204.905 347.318 220.76 347.318C223.198 347.318 225.592 346.708 227.732 345.539C267.461 323.838 323.367 293.636 322.657 293.661Z" fill="url(#paint11_linear_304_2)" fill-opacity="0.15"/>
<path d="M308.747 285.058L315.721 286.057C315.747 286.06 315.77 286.077 315.782 286.1C315.793 286.123 315.816 286.139 315.842 286.143L315.916 286.154C315.99 286.164 316.054 286.211 316.09 286.278C316.241 286.565 316.7 287.359 317.378 287.846C318.908 288.96 320.738 289.462 322.629 289.508C323.599 289.531 324.63 289.605 325.606 289.771C326.179 289.856 326.735 290.007 327.255 290.218C328.861 290.786 328.413 291.559 327.912 291.825C327.885 291.838 327.858 291.85 327.831 291.861C327.785 291.88 327.773 291.947 327.771 291.996C327.77 292 327.77 292.002 327.769 292.005C327.559 292.712 316.03 294.814 315.194 294.881C314.588 294.93 311.851 295.392 310.066 294.973C309.597 294.862 309.119 294.711 308.742 294.411C308.561 294.267 308.419 294.093 308.327 293.902C307.866 292.88 308.988 285.123 308.747 285.058Z" fill="url(#paint12_linear_304_2)"/>
<path d="M314.671 183.487C314.923 183.62 316.575 191.592 313.97 192.197C313.844 192.226 313.719 192.249 313.595 192.265C310.433 192.681 309.095 188.731 309.095 185.541" fill="url(#paint13_linear_304_2)"/>
<path d="M305.598 188.611C305.765 188.879 303.174 194.347 303.425 194.347C303.676 194.347 310.787 195.68 310.86 195.48C310.934 195.28 311.029 188.913 310.946 188.713" fill="url(#paint14_linear_304_2)"/>
<path d="M296.77 226.854C296.77 226.854 294.865 251.105 295.624 251.708C296.382 252.311 287.864 282.036 287.633 282.964C286.357 288.096 297.496 280.991 299.154 275.969L314.424 229.731" fill="#1A154C"/>
<path d="M303.502 230.183C303.502 230.183 308.079 258.443 308.278 259.284C309.557 264.901 308.26 285.69 308.26 286.637C308.26 291.861 317.466 282.978 317.867 277.77L321.527 230.261" fill="url(#paint15_linear_304_2)"/>
<path d="M286.558 289.988C286.559 289.978 286.551 289.969 286.541 289.969C286.53 289.969 286.522 289.958 286.525 289.947L286.606 289.651C286.691 289.05 286.856 288.458 287.098 287.884L287.469 286.545C288.091 284.304 290.391 282.973 292.643 283.551L292.964 283.633C294.366 283.993 295.435 285.128 295.71 286.549C295.882 287.44 295.728 288.365 295.254 289.139C294.69 290.059 293.943 291.23 293.574 291.601C292.438 292.744 287.38 291.781 286.775 291.67C286.176 291.56 286.471 290.637 286.558 289.988Z" fill="url(#paint16_linear_304_2)"/>
<path d="M-nan -nanL325.858 255.486L322.341 249.523C322.096 249.106 322.069 248.628 322.265 248.194C322.46 247.761 322.863 247.406 323.385 247.209L330.862 244.402C331.387 244.207 331.987 244.185 332.531 244.341C333.075 244.497 333.52 244.819 333.767 245.236L337.285 251.199C337.53 251.617 337.558 252.095 337.361 252.529C337.165 252.963 336.762 253.318 336.239 253.515L328.761 256.32C328.237 256.515 327.638 256.537 327.094 256.38C326.55 256.224 326.106 255.902 325.858 255.486L-nan -nanZM324.181 248.559C324.144 248.573 324.111 248.592 324.083 248.616C324.056 248.64 324.034 248.668 324.021 248.699C324.007 248.73 324.001 248.762 324.002 248.795C324.004 248.827 324.014 248.859 324.032 248.889L327.552 254.851C327.569 254.881 327.593 254.907 327.624 254.929C327.654 254.951 327.689 254.968 327.728 254.979C327.766 254.99 327.807 254.995 327.848 254.994C327.888 254.992 327.929 254.984 327.965 254.97L335.443 252.165C335.48 252.151 335.513 252.132 335.541 252.107C335.568 252.083 335.59 252.055 335.603 252.024C335.617 251.993 335.623 251.961 335.621 251.928C335.619 251.895 335.609 251.863 335.592 251.834L332.074 245.873C332.039 245.813 331.975 245.767 331.897 245.744C331.819 245.722 331.734 245.724 331.658 245.752L324.181 248.559Z" fill="url(#paint17_linear_304_2)"/>
<path d="M325.178 270.165C325.247 270.283 325.345 270.39 325.466 270.478C325.587 270.566 325.729 270.634 325.883 270.678C326.037 270.722 326.201 270.742 326.365 270.735C326.529 270.729 326.689 270.697 326.837 270.641L351.29 261.467C351.438 261.412 351.572 261.333 351.682 261.236C351.792 261.14 351.878 261.027 351.933 260.904C351.988 260.781 352.013 260.65 352.005 260.519C351.997 260.389 351.957 260.261 351.887 260.143L344.012 246.795C343.87 246.556 343.616 246.372 343.305 246.283C342.993 246.193 342.65 246.206 342.351 246.319L317.899 255.492C317.6 255.605 317.369 255.808 317.257 256.056C317.146 256.305 317.162 256.578 317.303 256.817L325.178 270.165Z" fill="url(#paint18_linear_304_2)"/>
<path style="mix-blend-mode:multiply" d="M342.136 263.565C346.448 261.947 348.255 256.829 345.915 252.862C344.088 249.764 340.298 248.425 336.93 249.689L327.053 253.394C322.74 255.012 320.933 260.131 323.274 264.098C325.102 267.197 328.891 268.534 332.259 267.27L342.136 263.565Z" fill="url(#paint19_linear_304_2)"/>
<path d="M319.889 261.195C320.124 261.593 320.821 261.726 321.445 261.493L345.898 252.318C346.521 252.083 346.836 251.572 346.599 251.172L343.115 245.267C342.882 244.869 342.186 244.734 341.561 244.967L317.104 254.142C316.483 254.377 316.169 254.891 316.404 255.289L319.889 261.195Z" fill="#BAC6E6"/>
<path style="mix-blend-mode:multiply" d="M-nan -nanL320.176 261.81C320.286 261.848 320.406 261.866 320.526 261.863C320.646 261.859 320.764 261.834 320.87 261.79L345.321 252.614C345.697 252.475 345.857 252.202 345.763 252.045L342.281 246.14C342.249 246.091 342.199 246.051 342.138 246.025C342.028 245.988 341.908 245.971 341.789 245.974C341.669 245.978 341.552 246.003 341.446 246.048L316.993 255.221C316.616 255.362 316.457 255.637 316.551 255.794L320.035 261.699C320.066 261.747 320.116 261.786 320.176 261.81L-nan -nanZ" fill="url(#paint20_linear_304_2)"/>
<path d="M340.769 258.819C340.839 258.938 340.937 259.044 341.058 259.132C341.179 259.22 341.321 259.288 341.475 259.332C341.629 259.376 341.793 259.396 341.956 259.389C342.12 259.383 342.28 259.351 342.428 259.295L342.991 259.084C343.14 259.029 343.273 258.95 343.384 258.854C343.494 258.757 343.58 258.644 343.635 258.521C343.69 258.398 343.715 258.267 343.707 258.136C343.699 258.006 343.659 257.878 343.588 257.759L340.492 252.511C340.351 252.272 340.097 252.088 339.786 251.999C339.475 251.91 339.132 251.923 338.833 252.035L338.27 252.246C338.122 252.302 337.989 252.38 337.878 252.476C337.768 252.573 337.683 252.686 337.627 252.809C337.572 252.932 337.547 253.062 337.555 253.193C337.563 253.323 337.603 253.451 337.673 253.569L340.769 258.819Z" fill="white"/>
<path d="M327.989 263.249C328.059 263.367 328.157 263.473 328.278 263.561C328.399 263.649 328.54 263.717 328.694 263.761C328.848 263.805 329.011 263.825 329.175 263.818C329.338 263.812 329.499 263.781 329.647 263.725L330.212 263.512C330.51 263.4 330.741 263.197 330.853 262.949C330.965 262.701 330.949 262.428 330.809 262.189L327.709 256.941C327.639 256.822 327.541 256.716 327.42 256.628C327.299 256.54 327.157 256.472 327.003 256.428C326.849 256.384 326.685 256.365 326.521 256.371C326.358 256.377 326.197 256.409 326.049 256.465L325.486 256.677C325.338 256.733 325.205 256.811 325.095 256.908C324.985 257.004 324.9 257.117 324.844 257.24C324.789 257.362 324.764 257.493 324.772 257.623C324.78 257.753 324.82 257.881 324.889 257.999L327.989 263.249Z" fill="white"/>
<path d="M302.778 193.999C303.176 193.922 304.412 191.829 304.569 191.829C304.726 191.829 310.806 192.939 311.153 193.012C311.499 193.085 312.346 195.816 312.346 195.816" fill="white"/>
<path d="M327.273 241.779C327.482 241.767 328.222 243.122 328.387 243.166C328.552 243.21 329.959 244.118 330.178 244.118C330.397 244.118 331.119 244.878 331.197 244.938C331.274 244.999 330.944 245.468 330.876 245.552C330.809 245.636 330.801 246.612 330.856 246.701C330.912 246.79 330.646 248.491 330.526 248.605C330.457 248.671 328.629 248.917 327.105 249.111C325.864 249.27 324.654 248.659 324.035 247.572L323.866 247.274C323.337 246.344 323.661 245.317 324.07 244.329C324.125 244.194 323.779 242.601 323.779 242.601" fill="url(#paint21_linear_304_2)"/>
<path d="M306.045 193.447C308.984 194.032 320.602 197.947 321.79 198.421C322.977 198.895 326.543 217.846 326.839 219.74C327.136 221.634 320.854 240.524 321.447 241C321.825 241.3 313.091 232.706 303.797 232.395C303.341 232.38 303.318 229.399 302.878 229.38C302.026 229.352 300.785 232.288 300.021 232.263C297.898 232.189 295.185 229.632 295.875 227.624C297.113 224.019 298.187 219.997 297.432 218.552C295.948 215.708 291.636 200.671 294.907 197.829C298.178 194.988 304.86 193.211 306.045 193.447Z" fill="#1A154C"/>
<path d="M314.591 199.106C314.571 199.176 314.555 199.245 314.539 199.316C313.089 205.655 313.475 214.869 313.771 219.206C313.881 220.823 314.238 222.397 314.791 223.922C316.816 229.493 321.93 243.333 322.88 243.585C324.07 243.901 328.821 242.792 329.414 242.474C329.816 242.259 326.305 231.52 324.003 224.627C322.763 220.914 322.667 216.934 323.261 213.065C324.092 207.649 324.528 200.153 321.093 198.101C316.06 195.093 314.785 198.456 314.591 199.106Z" fill="url(#paint22_linear_304_2)"/>
<path d="M304.726 190.32C309.257 191.515 306.846 181.103 311.027 178.987C313.284 177.845 315.384 176.928 315.985 177.121C317.44 177.589 321.194 181.454 316.825 183.467L313.373 184.975C313.193 185.054 313.062 185.214 313.02 185.406C312.9 185.963 312.085 186.078 311.616 185.755C311.294 185.533 310.937 185.461 310.607 185.773C309.682 186.647 309.742 187.696 310.14 188.024C310.627 188.426 310.647 189.163 310.194 189.604L309.487 190.293C309.033 190.735 308.396 190.934 307.771 190.83L304.726 190.32Z" fill="url(#paint23_linear_304_2)"/>
<defs>
<linearGradient id="paint0_linear_304_2" x1="-46.2861" y1="-22.4627" x2="768.673" y2="579.625" gradientUnits="userSpaceOnUse">
<stop stop-color="#9147E8"/>
<stop offset="1" stop-color="#7130CA"/>
</linearGradient>
<linearGradient id="paint1_linear_304_2" x1="772.334" y1="158.645" x2="342.34" y2="451.172" gradientUnits="userSpaceOnUse">
<stop offset="0.1" stop-color="#2861A4"/>
<stop offset="0.3" stop-color="#2C66A6"/>
<stop offset="0.52" stop-color="#3973AE"/>
<stop offset="0.75" stop-color="#4F89BA"/>
<stop offset="0.98" stop-color="#6DA7CB"/>
<stop offset="1" stop-color="#6FAACC"/>
</linearGradient>
<linearGradient id="paint2_linear_304_2" x1="533.269" y1="298.433" x2="583.428" y2="224.3" gradientUnits="userSpaceOnUse">
<stop offset="0.09" stop-color="white"/>
<stop offset="0.23" stop-color="#FAFCFD"/>
<stop offset="0.38" stop-color="#EDF4F9"/>
<stop offset="0.54" stop-color="#D7E7F1"/>
<stop offset="0.71" stop-color="#B8D5E6"/>
<stop offset="0.88" stop-color="#91BED8"/>
<stop offset="1" stop-color="#6FAACC"/>
</linearGradient>
<linearGradient id="paint3_linear_304_2" x1="472.047" y1="181.313" x2="632.332" y2="181.313" gradientUnits="userSpaceOnUse">
<stop offset="0.09" stop-color="white"/>
<stop offset="0.23" stop-color="#FAFCFD"/>
<stop offset="0.38" stop-color="#EDF4F9"/>
<stop offset="0.54" stop-color="#D7E7F1"/>
<stop offset="0.71" stop-color="#B8D5E6"/>
<stop offset="0.88" stop-color="#91BED8"/>
<stop offset="1" stop-color="#6FAACC"/>
</linearGradient>
<linearGradient id="paint4_linear_304_2" x1="477.288" y1="237.532" x2="580.259" y2="237.532" gradientUnits="userSpaceOnUse">
<stop offset="0.09" stop-color="white"/>
<stop offset="0.23" stop-color="#FAFCFD"/>
<stop offset="0.38" stop-color="#EDF4F9"/>
<stop offset="0.54" stop-color="#D7E7F1"/>
<stop offset="0.7" stop-color="#B8D5E6"/>
<stop offset="0.87" stop-color="#91BED8"/>
<stop offset="0.99" stop-color="#6FAACC"/>
</linearGradient>
<linearGradient id="paint5_linear_304_2" x1="724.35" y1="88.1088" x2="294.355" y2="380.636" gradientUnits="userSpaceOnUse">
<stop offset="0.1" stop-color="#2861A4"/>
<stop offset="0.3" stop-color="#2C66A6"/>
<stop offset="0.52" stop-color="#3973AE"/>
<stop offset="0.75" stop-color="#4F89BA"/>
<stop offset="0.98" stop-color="#6DA7CB"/>
<stop offset="1" stop-color="#6FAACC"/>
</linearGradient>
<linearGradient id="paint6_linear_304_2" x1="85.3268" y1="197.526" x2="530.132" y2="197.526" gradientUnits="userSpaceOnUse">
<stop offset="0.09" stop-color="white"/>
<stop offset="0.23" stop-color="#FAFCFD"/>
<stop offset="0.38" stop-color="#EDF4F9"/>
<stop offset="0.54" stop-color="#D7E7F1"/>
<stop offset="0.71" stop-color="#B8D5E6"/>
<stop offset="0.88" stop-color="#91BED8"/>
<stop offset="1" stop-color="#6FAACC"/>
</linearGradient>
<linearGradient id="paint7_linear_304_2" x1="748.83" y1="124.096" x2="318.836" y2="416.622" gradientUnits="userSpaceOnUse">
<stop offset="0.1" stop-color="#2861A4"/>
<stop offset="0.3" stop-color="#2C66A6"/>
<stop offset="0.52" stop-color="#3973AE"/>
<stop offset="0.75" stop-color="#4F89BA"/>
<stop offset="0.98" stop-color="#6DA7CB"/>
<stop offset="1" stop-color="#6FAACC"/>
</linearGradient>
<linearGradient id="paint8_linear_304_2" x1="85.3254" y1="278.52" x2="530.132" y2="278.52" gradientUnits="userSpaceOnUse">
<stop offset="0.09" stop-color="white"/>
<stop offset="0.23" stop-color="#FAFCFD"/>
<stop offset="0.38" stop-color="#EDF4F9"/>
<stop offset="0.54" stop-color="#D7E7F1"/>
<stop offset="0.71" stop-color="#B8D5E6"/>
<stop offset="0.88" stop-color="#91BED8"/>
<stop offset="1" stop-color="#6FAACC"/>
</linearGradient>
<linearGradient id="paint9_linear_304_2" x1="741.299" y1="113.026" x2="311.305" y2="405.553" gradientUnits="userSpaceOnUse">
<stop offset="0.1" stop-color="#2861A4"/>
<stop offset="0.3" stop-color="#2C66A6"/>
<stop offset="0.52" stop-color="#3973AE"/>
<stop offset="0.75" stop-color="#4F89BA"/>
<stop offset="0.98" stop-color="#6DA7CB"/>
<stop offset="1" stop-color="#6FAACC"/>
</linearGradient>
<linearGradient id="paint10_linear_304_2" x1="472.393" y1="244.024" x2="512.488" y2="198.099" gradientUnits="userSpaceOnUse">
<stop offset="0.09" stop-color="white"/>
<stop offset="0.23" stop-color="#FAFCFD"/>
<stop offset="0.38" stop-color="#EDF4F9"/>
<stop offset="0.54" stop-color="#D7E7F1"/>
<stop offset="0.71" stop-color="#B8D5E6"/>
<stop offset="0.88" stop-color="#91BED8"/>
<stop offset="1" stop-color="#6FAACC"/>
</linearGradient>
<linearGradient id="paint11_linear_304_2" x1="114.542" y1="318.802" x2="322.665" y2="318.802" gradientUnits="userSpaceOnUse">
<stop offset="0.09" stop-color="#2861A4"/>
<stop offset="0.29" stop-color="#2C66A6"/>
<stop offset="0.51" stop-color="#3973AE"/>
<stop offset="0.74" stop-color="#4F89BA"/>
<stop offset="0.98" stop-color="#6DA7CB"/>
<stop offset="0.99" stop-color="#6FAACC"/>
</linearGradient>
<linearGradient id="paint12_linear_304_2" x1="328.365" y1="290.102" x2="308.208" y2="290.102" gradientUnits="userSpaceOnUse">
<stop offset="0.3" stop-color="#2E3168"/>
<stop offset="0.79" stop-color="#211E55"/>
<stop offset="1" stop-color="#1A154C"/>
</linearGradient>
<linearGradient id="paint13_linear_304_2" x1="315.419" y1="187.893" x2="309.095" y2="187.893" gradientUnits="userSpaceOnUse">
<stop stop-color="#A288BF"/>
<stop offset="1" stop-color="#DAE4F0"/>
</linearGradient>
<linearGradient id="paint14_linear_304_2" x1="310.98" y1="192.056" x2="303.407" y2="192.056" gradientUnits="userSpaceOnUse">
<stop stop-color="#A288BF"/>
<stop offset="1" stop-color="#DAE4F0"/>
</linearGradient>
<linearGradient id="paint15_linear_304_2" x1="321.523" y1="258.643" x2="303.502" y2="258.643" gradientUnits="userSpaceOnUse">
<stop offset="0.3" stop-color="#2E3168"/>
<stop offset="0.79" stop-color="#211E55"/>
<stop offset="1" stop-color="#1A154C"/>
</linearGradient>
<linearGradient id="paint16_linear_304_2" x1="295.978" y1="287.329" x2="286.409" y2="287.329" gradientUnits="userSpaceOnUse">
<stop offset="0.3" stop-color="#2E3168"/>
<stop offset="0.79" stop-color="#211E55"/>
<stop offset="1" stop-color="#1A154C"/>
</linearGradient>
<linearGradient id="paint17_linear_304_2" x1="343.538" y1="255.223" x2="331.106" y2="246.896" gradientUnits="userSpaceOnUse">
<stop offset="0.3" stop-color="#2E3168"/>
<stop offset="0.79" stop-color="#211E55"/>
<stop offset="1" stop-color="#1A154C"/>
</linearGradient>
<linearGradient id="paint18_linear_304_2" x1="356.044" y1="266.608" x2="329.912" y2="249.105" gradientUnits="userSpaceOnUse">
<stop offset="0.3" stop-color="#2E3168"/>
<stop offset="0.79" stop-color="#211E55"/>
<stop offset="1" stop-color="#1A154C"/>
</linearGradient>
<linearGradient id="paint19_linear_304_2" x1="327.565" y1="263.666" x2="353.799" y2="253.674" gradientUnits="userSpaceOnUse">
<stop stop-color="#BBBDBF"/>
<stop offset="1" stop-color="white"/>
</linearGradient>
<linearGradient id="paint20_linear_304_2" x1="348.359" y1="260.248" x2="329.772" y2="247.799" gradientUnits="userSpaceOnUse">
<stop stop-color="#BBBDBF"/>
<stop offset="1" stop-color="white"/>
</linearGradient>
<linearGradient id="paint21_linear_304_2" x1="322.824" y1="235.879" x2="314.951" y2="237.995" gradientUnits="userSpaceOnUse">
<stop stop-color="#A288BF"/>
<stop offset="1" stop-color="#DAE4F0"/>
</linearGradient>
<linearGradient id="paint22_linear_304_2" x1="317.806" y1="210.939" x2="323.876" y2="232.256" gradientUnits="userSpaceOnUse">
<stop offset="0.3" stop-color="#2E3168"/>
<stop offset="0.79" stop-color="#211E55"/>
<stop offset="1" stop-color="#1A154C"/>
</linearGradient>
<linearGradient id="paint23_linear_304_2" x1="318.876" y1="184.043" x2="304.306" y2="184.043" gradientUnits="userSpaceOnUse">
<stop offset="0.3" stop-color="#2E3168"/>
<stop offset="0.79" stop-color="#211E55"/>
<stop offset="1" stop-color="#1A154C"/>
</linearGradient>
</defs>
</svg>
